<mxfile host="app.diagrams.net" agent="Mozilla/5.0 (Windows NT 10.0; Win64; x64) AppleWebKit/537.36 (KHTML, like Gecko) Chrome/131.0.0.0 Safari/537.36" version="26.0.5" pages="3">
  <diagram name="Page-1" id="DKv4UWEIg0MbXv92B8YH">
    <mxGraphModel dx="2049" dy="1066" grid="1" gridSize="10" guides="1" tooltips="1" connect="1" arrows="1" fold="1" page="1" pageScale="1" pageWidth="827" pageHeight="1169" math="0" shadow="0">
      <root>
        <mxCell id="0" />
        <mxCell id="1" parent="0" />
        <mxCell id="WSA3Hs9fptJSvYHBEbyV-25" value="" style="rounded=0;whiteSpace=wrap;html=1;fillColor=light-dark(#f8d420, #543300);dashed=1;strokeColor=none;opacity=10;" vertex="1" parent="1">
          <mxGeometry x="400" y="80" width="200" height="440" as="geometry" />
        </mxCell>
        <mxCell id="WSA3Hs9fptJSvYHBEbyV-26" value="" style="rounded=0;whiteSpace=wrap;html=1;fillColor=light-dark(#f8d420, #543300);dashed=1;strokeColor=none;opacity=10;" vertex="1" parent="1">
          <mxGeometry x="160" y="70" width="200" height="440" as="geometry" />
        </mxCell>
        <mxCell id="WSA3Hs9fptJSvYHBEbyV-10" style="edgeStyle=orthogonalEdgeStyle;rounded=0;orthogonalLoop=1;jettySize=auto;html=1;exitX=1;exitY=0.75;exitDx=0;exitDy=0;entryX=0;entryY=0.25;entryDx=0;entryDy=0;" edge="1" parent="1" source="WSA3Hs9fptJSvYHBEbyV-1" target="WSA3Hs9fptJSvYHBEbyV-3">
          <mxGeometry relative="1" as="geometry" />
        </mxCell>
        <mxCell id="WSA3Hs9fptJSvYHBEbyV-1" value="&lt;b&gt;&quot;CON&quot;&lt;/b&gt;" style="rounded=0;whiteSpace=wrap;html=1;fillColor=light-dark(#f8d420, #543300);strokeColor=none;" vertex="1" parent="1">
          <mxGeometry x="200" y="160" width="120" height="40" as="geometry" />
        </mxCell>
        <mxCell id="WSA3Hs9fptJSvYHBEbyV-11" style="edgeStyle=orthogonalEdgeStyle;rounded=0;orthogonalLoop=1;jettySize=auto;html=1;exitX=0;exitY=0.25;exitDx=0;exitDy=0;entryX=1;entryY=0.25;entryDx=0;entryDy=0;" edge="1" parent="1" source="WSA3Hs9fptJSvYHBEbyV-2" target="WSA3Hs9fptJSvYHBEbyV-1">
          <mxGeometry relative="1" as="geometry" />
        </mxCell>
        <mxCell id="WSA3Hs9fptJSvYHBEbyV-2" value="&lt;b&gt;&quot;CON&quot;&lt;/b&gt;" style="rounded=0;whiteSpace=wrap;html=1;fillColor=light-dark(#f8d420, #543300);strokeColor=none;" vertex="1" parent="1">
          <mxGeometry x="440" y="160" width="120" height="40" as="geometry" />
        </mxCell>
        <mxCell id="WSA3Hs9fptJSvYHBEbyV-12" style="edgeStyle=orthogonalEdgeStyle;rounded=0;orthogonalLoop=1;jettySize=auto;html=1;exitX=0;exitY=0.75;exitDx=0;exitDy=0;" edge="1" parent="1" source="WSA3Hs9fptJSvYHBEbyV-3">
          <mxGeometry relative="1" as="geometry">
            <mxPoint x="320" y="269.96296296296293" as="targetPoint" />
          </mxGeometry>
        </mxCell>
        <mxCell id="WSA3Hs9fptJSvYHBEbyV-3" value="&lt;b&gt;&quot;ACK&quot;&lt;/b&gt;" style="rounded=0;whiteSpace=wrap;html=1;fillColor=light-dark(#f8d420, #543300);strokeColor=none;" vertex="1" parent="1">
          <mxGeometry x="440" y="240" width="120" height="40" as="geometry" />
        </mxCell>
        <mxCell id="WSA3Hs9fptJSvYHBEbyV-19" style="edgeStyle=orthogonalEdgeStyle;rounded=0;orthogonalLoop=1;jettySize=auto;html=1;exitX=1;exitY=0.75;exitDx=0;exitDy=0;entryX=0;entryY=0.25;entryDx=0;entryDy=0;" edge="1" parent="1" source="WSA3Hs9fptJSvYHBEbyV-6" target="WSA3Hs9fptJSvYHBEbyV-8">
          <mxGeometry relative="1" as="geometry" />
        </mxCell>
        <mxCell id="WSA3Hs9fptJSvYHBEbyV-6" value="&lt;b&gt;Trame&lt;/b&gt;" style="rounded=0;whiteSpace=wrap;html=1;fillColor=light-dark(#f8d420, #543300);strokeColor=none;" vertex="1" parent="1">
          <mxGeometry x="200" y="320" width="120" height="40" as="geometry" />
        </mxCell>
        <mxCell id="WSA3Hs9fptJSvYHBEbyV-18" style="edgeStyle=orthogonalEdgeStyle;rounded=0;orthogonalLoop=1;jettySize=auto;html=1;exitX=0;exitY=0.25;exitDx=0;exitDy=0;entryX=1;entryY=0.25;entryDx=0;entryDy=0;" edge="1" parent="1" source="WSA3Hs9fptJSvYHBEbyV-7" target="WSA3Hs9fptJSvYHBEbyV-6">
          <mxGeometry relative="1" as="geometry" />
        </mxCell>
        <mxCell id="WSA3Hs9fptJSvYHBEbyV-7" value="&lt;b&gt;&quot;???&quot;&lt;/b&gt;" style="rounded=0;whiteSpace=wrap;html=1;fillColor=light-dark(#f8d420, #543300);strokeColor=none;" vertex="1" parent="1">
          <mxGeometry x="440" y="320" width="120" height="40" as="geometry" />
        </mxCell>
        <mxCell id="WSA3Hs9fptJSvYHBEbyV-20" style="edgeStyle=orthogonalEdgeStyle;rounded=0;orthogonalLoop=1;jettySize=auto;html=1;exitX=0;exitY=0.75;exitDx=0;exitDy=0;" edge="1" parent="1" source="WSA3Hs9fptJSvYHBEbyV-8">
          <mxGeometry relative="1" as="geometry">
            <mxPoint x="320" y="429.9629629629628" as="targetPoint" />
          </mxGeometry>
        </mxCell>
        <mxCell id="WSA3Hs9fptJSvYHBEbyV-8" value="&lt;b&gt;&quot;ACK&quot;&lt;/b&gt;" style="rounded=0;whiteSpace=wrap;html=1;fillColor=light-dark(#f8d420, #543300);strokeColor=light-dark(#f8d420, #543300);" vertex="1" parent="1">
          <mxGeometry x="440" y="400" width="120" height="40" as="geometry" />
        </mxCell>
        <mxCell id="WSA3Hs9fptJSvYHBEbyV-22" value="&lt;b&gt;SERVEUR&lt;/b&gt;" style="text;html=1;align=center;verticalAlign=middle;whiteSpace=wrap;rounded=0;" vertex="1" parent="1">
          <mxGeometry x="200" y="80" width="120" height="40" as="geometry" />
        </mxCell>
        <mxCell id="WSA3Hs9fptJSvYHBEbyV-23" value="&lt;b&gt;CLIENT&lt;/b&gt;" style="text;html=1;align=center;verticalAlign=middle;whiteSpace=wrap;rounded=0;" vertex="1" parent="1">
          <mxGeometry x="440" y="80" width="120" height="40" as="geometry" />
        </mxCell>
        <mxCell id="WSA3Hs9fptJSvYHBEbyV-27" value="" style="shape=mxgraph.signs.tech.rss;html=1;pointerEvents=1;fillColor=light-dark(#000000,#543300);strokeColor=none;verticalLabelPosition=bottom;verticalAlign=top;align=center;" vertex="1" parent="1">
          <mxGeometry x="320.4" y="640" width="39.6" height="40" as="geometry" />
        </mxCell>
        <mxCell id="WSA3Hs9fptJSvYHBEbyV-30" style="edgeStyle=orthogonalEdgeStyle;rounded=0;orthogonalLoop=1;jettySize=auto;html=1;exitX=1;exitY=0.5;exitDx=0;exitDy=0;endArrow=none;endFill=0;startArrow=none;startFill=0;dashed=1;strokeWidth=1;strokeColor=light-dark(#f8d420, #543300);" edge="1" parent="1" source="WSA3Hs9fptJSvYHBEbyV-28" target="WSA3Hs9fptJSvYHBEbyV-29">
          <mxGeometry relative="1" as="geometry" />
        </mxCell>
        <mxCell id="WSA3Hs9fptJSvYHBEbyV-28" value="&lt;b&gt;SEQUENCER&lt;/b&gt;" style="rounded=0;whiteSpace=wrap;html=1;fillColor=light-dark(#f8d420, #543300);strokeColor=none;" vertex="1" parent="1">
          <mxGeometry x="160" y="680" width="120" height="40" as="geometry" />
        </mxCell>
        <mxCell id="WSA3Hs9fptJSvYHBEbyV-29" value="&lt;b&gt;ESP32&lt;/b&gt;" style="rounded=0;whiteSpace=wrap;html=1;fillColor=light-dark(#f8d420, #543300);strokeColor=none;" vertex="1" parent="1">
          <mxGeometry x="400" y="680" width="120" height="40" as="geometry" />
        </mxCell>
      </root>
    </mxGraphModel>
  </diagram>
  <diagram id="1mjRdCrnHj4134wa5yfV" name="Page-2">
    <mxGraphModel dx="2206" dy="2317" grid="1" gridSize="10" guides="1" tooltips="1" connect="1" arrows="1" fold="1" page="1" pageScale="1" pageWidth="827" pageHeight="1169" math="0" shadow="0">
      <root>
        <mxCell id="0" />
        <mxCell id="1" parent="0" />
        <mxCell id="yVKTG6r9DrGv_Ry2zYl0-1" value="" style="shape=image;verticalLabelPosition=bottom;labelBackgroundColor=default;verticalAlign=top;aspect=fixed;imageAspect=0;image=data:image/png,iVBORw0KGgoAAAANSUhEUgAAA7AAAAIQCAYAAAHP0bIOAAAAAXNSR0IArs4c6QAAAARnQU1BAACxjwv8YQUAAAAJcEhZcwAAFxEAABcRAcom8z8AAIrpSURBVHhe7Z0JvF1Veb6TezOHDGQGEiCACloVHAjzIGHWKtqqWIdatOBQK2rV/rGKCYgg4IA4VtRKsUq1Kmpbh6IMKvMUCGMgDIFAmCGEhPD9z7tzd3Jyz7rHu9Zd++Tbh+ft7ynx7HPPXmt/69vvfvc5955hhrpSFLZLRWG7VAMW9tlnn7U1a9bY008/batWrQJnqC6qj+oUUrCwerJ+8MEHH7S77rrLli5dCs5QXR555JGiTqHiBgu7du1ae/zxx+3JJ5/sewR51O23317USfXqr2Bhn3nmmWI1lIVdefvOxX9P/L/77Yyv/NSu+801dvMjz9oN//MHe/ruy+yML/9rsR3l0eLFi/v+1V7XX3+9Pfzww0W9+mtQhX1o8fOK/5Z66y7H9v0LbUolF/app57qewR5VHJhhw3rsfsvemWQLbbYIsiYMWOCj7dj2LBhwX2I0PNTOe64wxqz+3qAbwSfL7bccsuox8Xjl80LzmXtot2Dz2/HrFmzgo8LCtsHhaWw66GwfVBYCrseCjswFHYQUNi+wvb29to222wTRBMLMXW7PWzXt30zSOj5QoUN7UOEni92fds3Wl6/JPR8sd9++9lJJ53Uwmc/+9ng88Vu7/y34D52bzweer7Ydtttg3OZO3du8PkitA/xyrd+Pfh8MaTCbr311kFCK0hMmbubveLIM4OEni9U2NA+ROj54hVHfrnl9UtCzxf77LOPLViwoIWFCxcGny92fdu/Bvcxr/F46PlCRQzNRQUPPV+E9iFe/uYzgs8XFLYPCkth10Nh+6CwFHY9FHYTFFaDCbHVVlsFmbr9njbvHWcFCT1fqLChfYjQ88W8d3yr5fVLQs8Xr3rVq+yUU05p4XOf+1zw+WL3o84J7mOPxuOh5wtd/Ybmst122wWfL0L7EFpYoeeLjnZsao4N7UOEni96r/ie9V55dhS7HHecHd2YX3+OaRDah1CsiHlcpHTsQFSWY0MDFKEdCQpLYddDYQeGwg4CCkth10Nh+6CwFHY9Kuya1+wdJPT8VFJybEph7XX7Budib3hV8PntoLCDgMJS2PVQ2D4oLIVdD4UdGAo7CChsU2F1iR5CEwuhwoYeb4cKa0fsFyT0/FT2339/O/nkk1vQGwGh5wvdbI95XNhfHxCci735oODz26EChh4XtejY0D5E6PmpdKpjybF9UNiBobCDgMJS2PVQ2D4oLIVdD4UdGAo7CCgshV0Phe2DwlLY9VDYgaGwg4DCUtj1dG1hZ86cGWTq1KlBRo0aFXy8HSpsaB8i9PxUXvrSl9pRRx3Vwrve9a7g88W0adOiHhcqRmguejz0/HZMmTIl+LigY/ugYynseihsHxSWwq6Hwg4MhR0EFJbCrofC9kFhKex6KOzAUNhBQGEp7HoobB8UlsKuh8IOTNbCll/Pstdee9lhhx1mhx9+eAuHHnpoEP3JndDj7dh3332D+xCh56fypje9yY499tggoeenEppHSej57TjkkEMGfHzJkiVxX89SfqGSVsOyZcvs7rvvBmeoLqpP1BcqSVoFq1evLr7JY+XKleAM1UX1CXWrNGBhUb1FYbtUFLZLRWG7VBS2S0Vhu1TBwioX6W6GLqdD3zYMmx7VRjUKZVgpWFj9wBNPPGH33ntv8NuGYdOzfPny4mtgQ7cTpWBhdTdDRUV+df/999uKFSuKWoUULKzuatx5553Fv6//zSz74y/3KP4tLbvqf23pU2ZnnHGG/fCPN9vNj5ld8aPf9G1FVeojH/1o37/WFfaee+4Z8Dt+/2xh/98HZtl3/u3bxb+RHw25sMindBpOLmzoi/fEsGEjgu8PtmOzzTYLPi5C+xATJ00LPr8dA71Pqj+4Ff7Cwq8X20I/0+4914G2TZ48OTgXEXq+aLefgRg/fjyFFRS2IQq7Dgo7CCgshV0PhR0YCtsHhW2oLKw+bRdi5MiRxWBChL61WIwb3RN8vgjtQ8yYMSP4fBHah1CRQs+fPXt28NuehbaFfkavFdqHGGg/m2++eXAuIvR80W4/oeeLIRU29BFKocKGVpEIfaOiUGFDzxehfYjp06cHny9C+xCadOj5Onihj54KbQv9jF4rtA8x0H7UsaG5iNDzRbv9hJ4vKGwfFLYhCrsOCttEaHCCwlLY9VDYigqr3zUJocLqYIQIfWuxGN8obOj5IrQPoavi0PNFaB9CV7ih58+ZM6flm55LtC30M3qt0D7EQPvRVXFoLiL0fNFuP6Hni4537EC0y7GhfYh2HRv6UsKCm38cfnzJT4JfWCh0oEL7GKgrRe6ODT3eDgpbQmEpbAmFHQQUlsKuh8IODIUtobCdL2zoC/7EhGl5390JZViRu7ChuYjQ8wWFHQQUdp0obAMK2weFpbDrobAUdj0UdmCGVNjQjWyhwmowMUyYMCH4uAh+O3KDiY24E3p+O1Sk0OO60R76tmehbaGfGei1xEDb9CZAaC4i9HzRbj8DUYuODe1DtMuxA6FJhx7XwQt1q9C20M8M9FpioG3q2NBcROj5ot1+BoLC9kFhG6Kw66Cwg4DCUtj1UNiBobB9UNiGKOw6KOwgoLAUdj0UdmAobB8UtiEKuw4KOwgorKPChr61WIwYMSL4DcTtGDt2bPBxEdqH0EEKPb8dA30TsxZJ6NuehbaFfqbdtzoPtE0LODQXEXq+aLefgaBj+6BjG6Kw66Cwg4DCUtj1UNiBobB9UNiGKOw6KOwgoLAUdj0UdmAobB8UtiEKuw4KOwgoLIVdD4UdmKTC6is/7rvvvgG/7Xn//fcPfgtxO+bPnx98XIT2IQ4++ODg81MJfdOzCD03lQMPPDA4FxF6fir77befPfDAA3Ffz7JmzZriC5X0TRGhbxuGTY9qoxqpViEFC1t+BZq+aiv0bcOw6VFtor8CDdVfFLZLRWG7VBQWoRqJhkWoRkpqWCWnkrVr1wJABM39E6tBN2y5A93q0M1J3XnW/azHHnvMHn30UQAYBOoX9Y36R31U3jocbPMOumF1ZtDNZt2jfPDBB4v/jRCKlxp32bJl9sgjjxT9pL4abD8NumHLN3q0s7vuusuefPLJvi1mF/zyjXb7DZ+2+x5c1fcIQt0lmZQ+dyIGoxNPPLHvX63Su6033nij3XvvvUXTlm/SDUZRDSsb1w406OaGfdmuL7Uf/Ntb7YMf/Ke+R9bpt5f/R/Hf9xz33/aXe/yL/eAhs2/d3Ph/DX1ml8PtG4e/wd70999u/K/bisfeu81fFf9FyJsWL17c96/BSc4pve/9/1D8t1lq2Ouvv774UNPDDz9c9FVHGxYhNHhtkoYdNqzH1ly7exT6Tnd9xDMG/WmD0OPt0N9EDj3ejmHDhgXH3I5Jk6cHXys3A30x4kDoyxdPOOG1jaqdHcG/D/iljQOhccWOLeVnir/9fPOewRoMhN21d/C12hE7LqGPDIceb4c+MrxJGvb+i14ZhRo29JnndowZMyb4eDvafSZ9INSwoTG3Y+Kk+L9on0Ls58i1KI477rBG1b4ewTeKnwu93kBoXLFjS/kZffb+8cvmBWswEGsX7R58rXbEjkvMmjUr+Hg7aNh+0LA0LA1Lw7ZAw9KwNGw/aFgalobdIBq2DxqWho0dl6hVwz566bwo1LBlwQaLGjb0eDvUsKHH26GGDY25HRMnxX/bXgpqpNDjA6G7nZ/61KsbVTsrgm8XPxd6vYHQuGLHlvIzatjV1+werMFA6K5y6LXaETsuoQYMPd6OTdKwvb29wb+Y0Y6Uv0IyZe5u9oojz4xi3Oie4Gu1Qw0bGnM7Uv7aySuO/HLLeP8cKnLotQZCC2+fffYJ/uWUgVi4cGHxc6HXGwiNa9e3/WtwzAMxr/H82PmoYbfZZptgDQZCX5Maeq12aFyhMbfj5W8+I/ha7aBh+0HD0rA0LA3bAg1Lw9Kw/aBhaVgadoNo2D5oWBqWhu0HDUvD0rBd3rCdfB82NOZ2pDRs79X/br3XnBPHbT8JPz4QS39mL/uXf7FjGnUbLO9pkNKwsc2X8jOdbNjQ4+2ozfuwNGxiw17xPeu98uw4bv5x+PGBWPIT2+W44+zoRt0Gi5qWhqVhN4KGpWFpWBq2BRqWhqVhadgWaFgalobtBw3bgIalYfs0pIbVQYlBDatFEUMn/0RMaMztmDlzZvC12tG75KfWe/vP4ljxm/DjA/HI+fbKE0+0DzbqNliObeD5T8Rst912wRoMxPbbbx98rXbEjkuoyUOPtwOH7Ueqw655zd5RTJjm99frOvU+bOzYUn5GDmuv2zdYg4GwN7wq+FrtiB2X4JK4HzQsDUvDbhAN2wcNS8PGjkvQsP2gYWlYGnaDaNg+aFgaNnZcgobtBw1Lw9KwG0TD9qGGDY25HSnvw6YQu5C6sWF5H3adaNg+aFgaNnZcgobtBw1Lw9KwG0TD9kHD0rCx4xI0bD9oWBqWht0gGrYPGpaGjR2XqFXDlh/kHixqWE0wBjVs6PF26ICEHm+HGjY05nZMmzYt+Fq5UZFDjw+EFt6ee+5pxx133KD5xCc+Ufxc6PUGolyAoW0DkfIzkyZNKn4xIVSDgVDThl6rHbHjEvoFkNDj7cBh+4HD4rA4LA3bAg1Lw9Kw/aBhaVgadoNo2D5oWBo2dlyChu0HDUvD0rAbRMP2QcPSsLHjEjRsP2hYGpaG3SAatg8aloaNHZegYftBw9KwNOwG0bB90LA0bOy4BA3bDxqWhqVhN4iG7YOGpWFjxyVq1bA6kDHoZ/RX+WMYMWJE8PF2jBo1Kvh4O9SwoTG3Qwc+9Fq5mThxYvDxgdDz586da/Pnzx80Bx54YNJ+OvEzOmmHjn879G0BoddqR+y4UsFh+4HD4rA4LA3bAg1Lw9Kw/aBhaVgadoNo2D5oWBo2dlyChu0HDUvD0rAbFNWwq1atskcffdTuuusu6+npCR6odtCwacQuJBrWf8PeeOONdu+99xYGqL7K3rBr1661NWvW2JNPPlmcFZYtW2ZLliyxxYsX26JFiwBgEKhf1DdqVvWR+kl9pf4ajAbdsM8+++z6ptUZQTt67LHHip0+9NBDADAI1C/qG/WP+qhsVvXXYDTohi2lFy6bV8jKAWDwlL1T9lKMohsWIbTpRMMiVCPRsAjVSDQsQjUSDYtQjUTDIlQj0bAI1Ug0LEI1UnTDlm/2Nn94AgAGT3MPxWrQDdvcpPq0xurVq+3pp58uPl4FAINDPaPeKT/xFNu4UQ2rHTR/lvjxxx8vPhep3+ABgPaoV9QzqZ8jlqIaVjvQ7+5p5/fff3/x+3z63dilS5cCwJ9BvaLfcluxYkXRuOol9VT2hi3dVXb+xBNP2BVXXNG3BSEUq6uvvtoefPDBomnVUzEuO+iG1Zlg5cqVxS/c/ulPf+rbghCKlfqn/OV19VSMyw66YRWU5a46M1x00UV9W8wefexpW7nG7JZrPmEXnbdP36MIdZd0OSvUZDG6/PLL+/61QRdccEHxWuol9ZR6qxKHlYU/8MADxQ5L/fDfT7DVS2bbmju2sQcW7Vg89siFnyr+e81/f980jG/8/Bf26J3X2coHbzF75la7/ck19p/nfqd4zhlnnGGP33mxrWz8+9vf3vC6CHnUrbfe2vev9lq69A476JBD+/7Xxjr//PPt9ttvL+4DqacqcdiBGvbKay607/7HufbuN2xlv/zVr4rH1j643O762mH2/i9f0vhhXT7fZTf/6Hh74IKT7bXTjyyec6d4dt3kD9pFDb7WVhf/CyG/GmzD7rrb7sXfPgtpkzas9NB1s+yME7ds/Gugna7o+y9CaJM3LEJo8KJhEaqROt6wuvN11/+93NZcu/ugsTv2Kv7ubQxz5swJPt6OlJ/R30u2pXsHxz0Qyy98ZfC12jF16tTg4+2YNGlS8PF26G8sm50dxaGHvij4Wu3QNwuGHm9Hys9oPqEatGPYsDHB12pHyrGeNm1a8PGBmD17tl188cWdb9hFP93Z7r/olYPm6Wt2C/5R5XZogqHH25HyM2rY1Y0ih8Y9EDf9cpfga7VjypQpwcfboa9ADD3ejnUN+/Uo5s/fMfha7VDzhR5vR8rPaD6hGrRj2LDRwddqR8qx1kk49PhA6I+V07BN0LA0rKBhadiNoGFpWEHDNkHD0rCCht0gGrYBDUvDChq2CRqWhhU0LA27ETQsDStoWBp2I2hYGlbQsE3QsDSsoGE3iIZtQMPSsIKGbYKGpWEFDbuJGvbmxoJ99NJ5g8YW71EMNgZ97jL0eDtSfkYNazfuGRz3QNz+65cFX6sdKm7o8XZoEYUeb8e6hj0rioMO2in4Wu1Q84Ueb0fKz2g+oRq0Qw0beq12pBxrfZY49PhAyFA2ScOqMbbZZptBM3fu3OAE2qF97Pq2b0axx1HnBF+rHWpYjS807oFIOTFMmbxZcMzt2Ha3vw2+Vju0wE866aQott9+++BrtWPEyFHBMbdjxIiRwddqh+YTqkE7xo4dG3ytdszd/e+CY27HlM3jmnyTNax2vPXWWw+abbfdNniJ0A7t4xVHnhnFbu/4TvC12qGG1fhC4x6IlEvvzSdtFhxzO7bZ9a3B12qHFviCBQui2G677YKv1Q41bGjM7VDDhl6rHZpPqAbtUMOGXqsd2857e3DM7dh88oTgaw2EmpaGbYKGpWEFDUvDbgQNS8MKGrYJGpaGFTTsBtGwDWhYGlbQsE3QsDSsoGFp2I2gYWlYQcPSsBtBw9KwgoZtgoalYQUNu0E0bAMaloYVNGwTNCwNK2jYTdSw+oPdWuSDRQtCizwG7WPeO86KYs93/zD4Wu1Qw2p8oXEPRMofLJ/SKG5ozO3Q51tDr9UOLfBTTjklih122CH4Wu1Qw4bG3A41bOi12qH5hGrQjnHjxgVfqx3b7fGu4Jjboc8Sh15rIPQZ9K522NDj7Uj5mU457LSx4633mnOi6Pnw3wQfb4cW+DGNusWw1YEHBsfcjk7+el2oBu1Icdiu/vU6GjaxYa88O4qeD70l+Hg7tMCPbtQthq3mzw+OuR00LA27ETQsDSto2A2iYRvQsDSsoGGboGFpWEHD0rAbQcPSsIKGpWE3goalYQUN2wQNS8MKGnaDaNgGNCwNK2jYJmhYGlbQsDTsRtCwNKygYWnYjaBhaVhRm4aN/fC//lC1FnkMKR+wT/kZNazGFxr3QKTsZ8a4zaz39p9F0XPcO4OPt0ML/IONusUw57DDgmNuh5ov9Hg7Un5G8wnVoB0pH/6fNGlS8PF2TJ8+Pfj4QPDh/36k/Iwa1l6/v615zd6DZvnB8d8V1Mnv1gn9Cl07kn69roMOG6pBO4aN5Lt1aNgmaFgaVtCwTdCwNKygYTeIhm1Aw9KwgoZtgoalYQUNS8NuBA1LwwoalobdCBqWhhU0bBM0LA0raNgNomEb0LA0rKBhm6BhaVhBw9KwG0HD0rCChqVhN4KGpWFFbRpWH2JWEw4WLQgNNgbtI/R4O1J+pmjYNx1odsR+g2bl4XsGX6sdKm7o8XboA+mhx9uhBX7yySdHob/8H3qtdqj5Qo+3I+VnNJ9QDdqhhg29VjtSjvW0adOCjw+EDAWHbSLVYTW+0LgHImU/OGy6w4Zq0A5+vY6G3QgaloYVNGwTNCwNK2jYDaJhG9CwNKygYZugYWlYQcPSsBtBw9KwgoalYTeChqVhBQ3bBA1LwwoadoNo2AY0LA0raNgmaFgaVtCwNOxG0LA0rKBhadiNoGFpWFGbhtWO9UH7waKDOGvWrCi0j9Dj7Uj5GTWsxhca90Ck7GfzzTcPPt6OCRMmBB9vhxb4cccdF4VOWKHXaoeaL/R4O1J+RvMJ1aAdatjQa7Uj5VjrJBx6fCDUtDhsEzgsDitwWBp2I2hYGlbQsE3QsDSsoGE3iIZtQMPSsIKGbYKGpWEFDUvDbgQNS8MKGpaG3QgaloYVNGwTNCwNK2jYDaJhG9CwNKygYZugYWlYQcPSsBtBw9KwgoalYTeChqVhRW0advr06TZz5sxBow8+a3IxaB+hx9uR8jNaRBpfaNwDkbIfLYjQ4+0YP3588PF2aIEfddRRUWghhV6rHb29vcHH25HyM5pPqAbtGD16dPC12pFyrGNrqm8KwGGbwGFxWIHD0rAbQcPSsIKGbYKGpWEFDbtBNGwDGpaGFTRsEzQsDStoWBp2I2hYGlbQsDTsRtCwNKygYZugYWlYQcNuEA3bgIalYQUN2wQNS8MKGpaG3QgaloYVNCwNuxE0LA0ratOwmtzkyZMHjf7qvf6yegzaR+jxdqT8jD6QrvGFxj0QKfvRIgo93g59iD30eDu0wOfPnx+FTiah12pHT09P8PF2pPyM5hOqQTt0Eg69VjtSjvW4ceOCjw+E1g0O2wQOi8MKHJaG3QgaloYVNGwTNCwNK2jYDaJhG9CwNKygYZugYWlYQcPSsBtBw9KwgoalYTeChqVhBQ3bBA1LwwoadoNo2AY0LA0rurZhL7vsMhqWhqVhG6Q27JIlS2hYQcPSsOI537CrV6+2J554wh588EG78soraVgaloZtkNKwf/rTn+zOO++0FStWFD2l3qrEYVeuXGmPPPKIXX311XbIIYfYYYcdVnD44YcPikMPPdQl+++/f3C87Qi9zp/joIMOCj7eDn0wP/R4O/bdd1879thjo3j1q18dfK126LiFHm9Hys9oPqEatOOAAw4IvlY7Uo51bE3VNzK8e++91x5++OGipypx2LVr19rTTz9tjz32WHFZvHTpUrvlllvs+uuvt0WLFgFAG6677rqiV9Qzpbuql9RT6q2sDSvpRXUmeOqpp4od6dL4vvvus3vuucfuvvtuAGjDXXfdVfSKeka9ox4q3VW9NVgNumF1BnjmmWeK6201rcKyLo9l6w899BAA/BnUK+oZ9Y56SL2knhqsu0pRDVteGuusICtftWpVsWOdKQCgPeoV9Yx6p3TWsq8Gq0E3bKnmxhU6QwDA4Cj7JrZRS0U3LEJo04mGRahGomERqpFoWIRqJBoWoRqJhkWoRqJhEUIIoQqEwSKEEEIVCINFCCGEKhAGixBCCFWgTW6w5a8YAQAA5GZTqlKD7T/R/r/vrl+4BwAAqJKB/nZESVWqxGDLQTcbqiapPzfV/69APfnkkwX6U8oAAAA5KL2l/19Skw+VptvfcHMru8GGjFWTKg21+e+i6g+z6i8p6y+SAwAADBV9WVX5b/mLfEae8+ijjxbGWxpu+WdL+xttTmU12PIqQAMWulLQVYMmpMnddttt9ulPf9oWLly4/suX9L8BAACqQD5z/PHHF/4j0y3/iL/Srfyp/EP+ovSwXMpusLoKKG8H6ypBk5C56qri0ksvLf43Qggh1CnJfy6//PLi++dksvrGnDLRyqfK28a5U2wlBqsrAcVvmam+m0uT0fd16fumBzLY66/+nn3/22+yX//kzbZsybn2v//1d41Hq3vzGSGE0HNDMlj5j77kVV60fPny4taxTFaeJL+Sb7k3WA1SVwKK3ro60AR0H1xXDhdccEHQYH/9s4/ZsqtfYT8895t22f+82L555lvtgUefscUX7ND3jHVaveIaO+D1R9gbD3673U8QRgghV1q8eHHfvzbo1ltv7fvX0LVkyRL7+6OPKf79TMNn9t573+Lff04y2N///vfF+JYuXWrLli1bf7tYPiW/Kt+PrYXBKnaXH2jSRNoZ7Lk/+oF991vvtSdv2c6eXvpSs3tfbjddtKP94odH9T1jg357/BG211FnNCL9n+ywNx9v5335Hfa1q6+yNxzxWbPHLrIX7v1pW3zuAvvBcrN7Lv+anXXrY/aOyS+1H513nr34Iz+yr+71QrvoEbO/3/k19ljj/w494kN9r7zcDtziIDvvB1+0V33jKvu7mS/qexwhhLpHe+yxRwsKQjlUtcFKqxresve++9nH//mf+x7585LBnn/++Xb99dfb7bffXqRYPaYP25Zfqt61Bvt/v/+1/eJ/vm+//u8F9rvfn2N/+6a32Zc+9H47/ctf6nvGOq1+4nzbeaedbKcPfL/43194xyG2U+N/f+e6NfbVDx9me7777faBfT9utuZOe2Hj8V3f82H78e1rbfXN3y2et9OxP7Dvv/Uf7N7Gz5773g/azY3//uGMfyy2/WKZ2bU/+Hjx7zf+2yV20iEfsjXFXhBCCA1Gd9xxhy1atGgjZGa5tN9++/X9a5302uc1wtOf03PaYKWnVj5qK598pHF18oitXvVw36OxetaefGxl378RQgghDBYhhBCqRM8Jg73kkkvsoIMOsj33nm977FUdu+853w4++CA78MADK0fzCT2em07sR/s4+OCDi+MXOq65UP07NZ/Q47np1H5Um/32O8B2332fSjnggPnB/eemm+qjfag+ofWeE85taRx66KF24YUXdrfB6veQhg3rsUU/3dnuv+iVlfH0Nbs19jPCtthii0rZaqutbMyYMcFtOdF+Nttss+C2nIwcObJx3IbZ6mt3Dx7XXNz0y11s4qRpwTHkZMqUKcHHczNx4kTbcsstg9tyoTWg2hx33GGNTvt6hXzD5s/fsdhfaBy50PEaMWJE5cetU/uZPHlyUZ/HL5sXXPO5WLto98Z+RgfHkBMdL63r0LaczJo1y6ZOnRrclgvNZfz48cWv6WCwGcBg08Bg08Bg4+mU8XVqPxhsGhhshDDYasBg08BgU8BgU8Bg08BgI4TBVgMGmwYGmwIGmwIGmwYGGyEMthow2DQw2BQw2BQw2DQw2AhhsNWAwaaBwaaAwaaAwaaBwUYIg60GDDYNDDYFDDYFDDYNDDZCGGw1YLBpYLApYLApYLBpYLARwmCrAYNNA4NNAYNNAYNNA4ONEAZbDRhsGhhsChhsChhsGhhshDDYasBg08BgU8BgU8Bg08BgI4TBVgMGmwYGmwIGmwIGmwYGG6HBGGxvb69NnzLKZk2rji2mj24swuHFvqpEjdvT02sjR42tltFjrWd49fMZ3tiHThI6fqHjmosZU0cVxy00hpz09PSEj2dmekeMLNZCaAy50OurNhMnjrOtt55WKWPGdGY+Wm+h45kb7afq+WitdaJ3tpzRuXOb1nXoeOZkxKgx1ts4dqEx5EJzeU4ZrK6Ot95668rYdtttizQWuprJieYxZe5u9oojz6yU3d7xHRs3uic4hpyUCVbHL3Rcc6HjNn369OAYcrL5pM0ax+/LLcczN9vs+tbKE1KZYPfZZx9bsGBBZSxcuNC22267ziTYkaNs17f9a/CY5mJe4/VHNIyiUwl2m222Ca75XKg3x44dGxxDTnS8tp339uAxzcnL33yGbT55QnAMuXjOJVgMNg4MNg0MNh4MNg0MNg0MNkIYbDVgsGlgsPFgsGlgsGlgsBHCYKsBg00Dg40Hg00Dg00Dg40QBlsNGGwaGGw8GGwaGGwaGGyEMNhqwGDTwGDjwWDTwGDTwGAjhMFWAwabBgYbDwabBgabBgYbIQy2GjDYNDDYeDDYNDDYNDDYCGGw1YDBpoHBxoPBpoHBpoHBRgiDrQYMNg0MNh4MNg0MNg0MNkIYbDVgsGlgsPFgsGlgsGlgsBHCYKsBg00Dg40Hg00Dg00Dg43QYA1WJ/IqGTVq1Lo/JB7Ylpvhw4fZiN7hlVP84frA/nNS/rF/Hb/Q9pzoD3CHHs/JiOE9NmzHratnRuPk+uIdbNgLt6uOlzRev1GbMbNm2ZSXvaxSRk6YEDyeuSn+CH9greemE+cCndc60Tt6/U6cC0RPh85tvR04F5BgM9LJBNuNX1fXLQl22tjx1nvF96z3yrMrpedDb7Hem38c3JaNJT8parPLccfZ0Y1eq4pjGmw1f35nEmzjxFp1suzUfroxwfJ1dUMXBjsEMNg0MNgEMNgkOrUfDDYNDDZCGGw1YLBpYLDxYLBpYLBpYLARwmCrAYNNA4ONB4NNA4NNA4ONEAZbDRhsGhhsPBhsGhhsGhhshDDYasBg08Bg48Fg08Bg08BgI4TBVgMGmwYGGw8GmwYGmwYGGyEMthow2DQw2Hgw2DQw2DQw2AhhsNWAwaaBwcaDwaaBwaaBwUYIg60GDDYNDDYeDDYNDDYNDDZCGGw1YLBpYLDxYLBpYLBpYLARwmCrAYNNA4ONB4NNA4NNA4ON0GANVgtk3LhxlaGDqT+ILfOrEs1D8wlty4n2o5NEaFtOdMx0kjhm2y3s6K1nVsY7Zk+3EaNHB8eQk1GNfYxrzKdqRjUY3++x3Oj1VZsZjRP5S7bbrlI2a6w3rbnQMc2FXl9/hL9b9lNenB6zzazgms+FenPY8M6c2zSn0Lbc6AsMQo/nQnMhwWaEBJtGeZKw1+9va16zd2UsP3g3mzBtWnAMOZkyZUrw8dzoSr/qhKQ1oNp01dfVdWGCtdftG1zzubA3vMqGjRwdHENOdLxIsEMXBjsEMNg0MNh4MNg0OrUfDDYNDDZCGGw1YLBpYLDxYLBpYLBpYLARwmCrAYNNA4ONB4NNA4NNA4ONEAZbDRhsGhhsPBhsGhhsGhhshDDYasBg08Bg48Fg08Bg08BgI4TBVgMGmwYGGw8GmwYGmwYGGyEMthow2DQw2Hgw2DQw2DQw2AhhsNWAwaaBwcaDwaaBwaaBwUYIg60GDDYNDDYeDDYNDDYNDDZCGGw1YLBpYLDxYLBpYLBpYLARwmCrAYNNA4ONB4NNA4NNA4ON0GANdtKkSbb55ptXhk6s2o8WSJVoHjKl0LacaD+jR48ObsuJjplOEsMnNk4WEydVx2YTbELjgiE0hpzoix9Cj+dGF1mqUWhbLvT6qs32229vhx12WKXohNeJ+fT09HTNfvQH5df1Tr+1nhn15qgOnXO0rkPbciPzCz2eC82FBJsREmwaZYLV8Qsd11xoPp34ujoSbDwk2DTKBMvX1cVBgo0QBlsN2g8GGw8GGw8GmwYGmwYGGyEMthq0Hww2Hgw2Hgw2DQw2DQw2QhhsNWg/GGw8GGw8GGwaGGwaGGyEMNhq0H4w2Hgw2Hgw2DQw2DQw2AhhsNWg/WCw8WCw8WCwaWCwaWCwEcJgq0H7wWDjwWDjwWDTwGDTwGAjhMFWg/aDwcaDwcaDwaaBwaaBwUYIg60G7QeDjQeDjQeDTQODTQODjRAGWw3aDwYbDwYbDwabBgabBgYbIQy2GrQfDDYeDDYeDDYNDDYNDDZCGGw1aD8YbDwYbDwYbBoYbBoYbIQGa7AzZswoDmxVlE01bdq0StE8Ro0aFdyWE+1Hf7g+tC0nOmY6Sej4hY5rLjQffSlDaAw50Qki9Hhu1Ly6YAhty4WOmWqzyy672DHHHFMZ73nPewpz1f5C48iFjpfOBVUft07tZ8KECUV9dEIPrflcqDf1xR+hMeREx0vrOrQtJzJX/TH+0LZclHMhwWaCBJsGCTYNEmw85UVw1cetU/shwaahiwYS7CCFwVaD9oPBxoPBxoPBpoHBpoHBRgiDrQbtB4ONB4ONB4NNA4NNA4ONEAZbDdoPBhsPBhsPBpsGBpsGBhshDLYatB8MNh4MNh4MNg0MNg0MNkIYbDVoPxhsPBhsPBhsGhhsGhhshDDYatB+MNh4MNh4MNg0MNg0MNgIYbDVoP1gsPFgsPFgsGlgsGlgsBHCYKtB+8Fg48Fg48Fg08Bg08BgI4TBVoP2g8HGg8HGg8GmgcGmgcFGCIOtBu0Hg40Hg40Hg00Dg00Dg40QBlsN2g8GGw8GGw8GmwYGmwYGG6HBGqwmPGfOnMrQIpdZqHhVonnIYEPbcqL9yGBD23JSGqyOX+i45kLz0R/hDo0hJ/pCgdDjuSlPRKFtudAxU2322msv++QnP1kZn/rUp2zu3LnF/kLjyIWOl4yv6uPWqf2UBisTDK35XKg3ZbChMeREx0vrOrQtJzNnziwuhEPbcqG5kGAzQoJNgwSbBgk2Hh0vEmw8JNh4NBcMNiMYbBoYbBoYbDydMr5O7QeDTQODjRAGWw3aDwYbDwYbDwabBgabBgYbIQy2GrQfDDYeDDYeDDYNDDYNDDZCGGw1aD8YbDwYbDwYbBoYbBoYbIQw2GrQfjDYeDDYeDDYNDDYNDDYCGGw1aD9YLDxYLDxYLBpYLBpYLARwmCrQfvBYOPBYOPBYNPAYNPAYCOEwVaD9oPBxoPBxoPBpoHBpoHBRgiDrQbtB4ONB4ONB4NNA4NNA4ONEAZbDdoPBhsPBhsPBpsGBpsGBhshDLYatB8MNh4MNh4MNg0MNg0MNkKDNVj90WotlKrQCUJmoZNElWgeWuyhbTnRfiZMmBDclpPSYHX8Qsc1F5rPjBkzgmPIiRo39HhuJk2aZLNnzw5uy4WOmWrzqle9yk455ZTK+NznPmc77LBDsb/QOHKh4yXjq/q4dWo/+mIJ1UdflBBa87lQb44bNy44hpzoeGldh7blROanL/4IbcuF5kKCzYgWIgk2HhJsGiTYeHS8SLDxqDdJsHFoLhhsRjDYNDDYNDDYeDplfJ3aDwabBgYbIQy2GrQfDDYeDDYeDDYNDDYNDDZCGGw1aD8YbDwYbDwYbBoYbBoYbIQw2GrQfjDYeDDYeDDYNDDYNDDYCGGw1aD9YLDxYLDxYLBpYLBpYLARwmCrQfvBYOPBYOPBYNPAYNPAYCOEwVaD9oPBxoPBxoPBpoHBpoHBRgiDrQbtB4ONB4ONB4NNA4NNA4ONUMhgNYHSYC+77DIMNgHtB4ONB4ONB4NNA4NNo5MGe9FFF9miRYtsyZIlhcHKl2prsKtWrbInnniiSLArVqwgwQ4B7QeDjQeDjQeDTQODTaOTBvuHP/zBbrjhBrvjjjts2bJlhS/Jn+RT8qtaGOzatWuLgT799NP25JNP2mOPPWYPPfRQccVw1VVXWU9PT9G8ocWTCww2DQw2DQw2nk4ZX6f2g8Gm0UmD1R3UW265xe666y5bvny5Pfjgg/boo48WPiW/km/Jv2phsKtXr15/m1iT0NWCrhpktLoHftNNNxVXE9ddd51dffXVduWVVwIAAGRBviJ/kc/ceuutBf3Ntbw9LL+qhcGK8jaxrgo0+DLJlreL77vvvsJoddtYcV33xG+77TYAAIAsyFfkL/IZ+Y18R/6j913lR7o1LH8q02t5e9itwUoanK4ChAasKwPd3165cuVGRqtJ6ipCE9abzfpEFwAAQA7kK/IX+Yz8Rr4j/5EPyY/kS/In+VTpWTnNVarEYEtKky1vGetKodlsdQWhiC40cQAAgByU3iKfaTZV+VB5S7g012bfyqnsBluqecDl1YEmUxpuaboAAABVUnpO6UGlJzX7VBWqzGBDap4MAADApqBT6qjBIoQQQs8VYbAIIYRQBcJgEUIIoQqEwSKEEEIVCINFCCGEKhAGixBCCFUgDBYhhBCqQBgsQgghVIEwWIQQQqgCYbAIIYRQBcJgEUIIoQqEwSKEEEIVCINFCCGEKhAGixBCCFUgDBYhhBCqQJvUYEPf0wcAAJCLTamOGGxo0uU3ygMAAFRJyIM6oUoNtnky5USfeeaZ9axZswYAAKAymj0nZLhVqhKDbR58s7GWE169erU9/fTTBatWrQIAAMhO6TPynGbD7ZTRZjfY5gGXxlqaa2moTz31lK1cubLgySeftCeeeAIAACAb8pbSZ+Q5peGWJlsabbNn5VZlBtucWsvEWhpraaqPP/64PfbYY/boo48CAABkQ94ij2k2W3lQc6Ltb7K5ldVgm81VlOZaplZNVJN+5JFH7KGHHrIHH3zQVqxYYQ888AAAAMCQuP/++9f/W94ij3n44YcLw5XZymjLNFuabOlXVZhsJQZbxu/SXHXloMlpopr0fffdZ8uWLbO7777b7rzzTlu6dCkAAEA25C3ymHvvvbcwXIU6BTwFPXlSabKlX9XKYHVlUN4W1oR0BXHKKafYwoULbcGCBQWf/vSnAQAAKkNe8/nPf75It80mW94u7n+rOKeyG6wGWaZXTUCRXOaqqH7CCSf0PRMhhBDqjI4//vgizcpkdSe12WSbbxW7N9jm9KoYrknoqkETU3pFCCGEOqlPfepTdvvttxe3ixX29Dkgmaw8qjnF1sZgdX9b5qpJlO+7YrAIIYQ6LRnsLbfcYnfdddf6W8W6syqPklfVwmDLT2OV772Wv4ajCWli7Qz2W1/ax37xg9fYbTf+p/3+v//RbrjitL4tCCGEULpksIsXL7Y77rijSLEKfbpVLI8q34st/SunshmsnF+D05WA7mkrestcFcWXL19efKprIIO9/MIT7PYlF9otSx+3h66bYQ8+9rQtuuJ0u/HGxX3PQAgh5F365G5/ckl3QZU8m3X66af3/au9ZLCLFi2y2267ze65556NPvAkr6rqfdhKDLZ8/1WD11WCDoyuHPRprpAu+el0u+X679gXTnmN3XX5i+2s7/3Eliz+il30fyf3PUNaa7/4x7+zv3rjG+0z/7Ok7zGEEEJepPN9s5QWc+rwV7+mSJ/SgkZgu+CCC4p//zl98pOftOuuu85uvfXW4m6qQl+zwZbvw9bGYMtPD2sSOsjtDPb7Z860+6/e2p66bQd7askLbekVr7CHFj3PFl38jr5nNPTsStv5JW/s+x/Sg/a1M86wP92igq62s758hv32omvsPnvWLvn5JY3H1tqlP72oeOavvv1VO+NrFzb+9ZDddtkFdsaZ37AHVxeb7H++dYZ9+yfnN/71rJ3TeI1//8mNturRpXbBr37UmEPfkxBCCP1ZleZXSmkxt153xBF24gkn2EUXrzu/D0Yy2GuuucZuvvnmwmAV+vRhJ3mUvKprDVa/APzlb3zb/vTzufbM3S+x1XfubM8ue6md/eXt7ZGHl/c9q9SDdsjOW9ivb37MFr5sV/v6eefZIcecZL/40OF2WWPrF/5qZ7uoYazv2vHdjf/1tL1n2yPtgVvPsrd95hw7b+HhdsXyC23r13zR7Kmf2xs//X/2m3863M69u3hhu/hLx9jHzz3PTvngX9myq8+0d34//8JACKFNqZ///Oe2xx57bMThhx/et3Xo6oTBfv4LX7Dd5s0rbvMOVs9Zg73m2ivtUws/Zqd98XT7zEnvs6+ccoC99S0H2T+97719z+jT2mesLN327/y8/csur7fH+/736e89xh5r/PcXx/2N/V4G+5K3FI8f0TDYZZd+0b5y41PF/27YqH38jIsb/73e3nfsT+ysN73Rynd5//tTf2/KuNKyq75pX73myb7/hRBCaDDS+b5ZuW8Rn/K5z9kll+gOpdnBhxxqy5cPzmSfswZ7xx2323n/fa79/Kefst/+9tv25W+ebie++112zF+/oe8ZG3TyfvNsp512suvuf8bsyQvtxY1/73TEp8xWXVo8/o63vt9+scrs8n99t+2095726YM+Uvzc0bu/rLH9RXbjg5fZ6f9+VeORW+2Ek/6n8d8H7NWNn9v/7xqvYffbfL3eKw61+2/8sf3gptKUEUIIDUbXXntt8WGiEplaLukDSpddpnuVG3TooYf2/au9nrMGK539b1+0S346ye67emu76L+2sM+f/Je27N77+rYOXhec8g/2szLWIoQQQg09pw326adX2VMrH7ZVTz1ia55+xJ566om+LXFas2qlrc53bBBCCHWBntMGixBCCFUlDBYhhBCqQBgsQgghVIGeEwb7gQ98wA466GDbY6/5lbL3vgfagQdWz0EHHRR8PDed2s/BBx9s+zSOXeiY5uTALjtundiP9qH67L77PpVz8MHdddxCj+dGtTlg/kHB9Z6T/fYP7z833dY7H/3oR7vfYI8++mjbbFxjlzfvaWuu3b0yfv2tnWzLLbeyrbaqlgkTJticOXOC23IyduzYjuxn2LBh9rMzdwoe01zYTXvazKmjbPbs2cEx5EKvP2LEiOC2nKguY8aMCW7Lyfjx44v6mP2swdkV8sPGfqqfz5ZbbmnTp08PbsuJ9qF9hbblQmtAtdlv10m2dlF43efiE8es219oHDkZNWpUR/ajHq36XDBlyhT78Ic//Nww2PFjh9njl82z+y96ZWX8+EvPt1mztrAttqiWzTbbrChgaFtOyhN4aFtOdJI453PPDx7TXDx66TybPmVUcdILjSEXen01b2hbTlSX0aNHB7flZNy4cX0Ge06Dr1fItxv7qX4+s2bNsmnTpgW35UT70L5C23KhNaDa7PWyibbiD+F1n4uPvHPd/kLjyIkMthP7UY9WfS7YfPPNMdicYLBpYLDxqC4YbDwYbBoYbDwYbGYw2DQw2HhUFww2Hgw2DQw2Hgw2MxhsGhhsPKoLBhsPBpsGBhsPBpsZDDYNDDYe1QWDjQeDTQODjQeDzQwGmwYGG4/qgsHGg8GmgcHGg8FmBoNNA4ONR3XBYOPBYNPAYOPBYDODwaaBwcajumCw8WCwaWCw8WCwmcFg08Bg41FdMNh4MNg0MNh4MNjMYLBpYLDxqC4YbDwYbBoYbDwYbGYw2DQw2HhUFww2Hgw2DQw2Hgw2MxhsGhhsPKoLBhsPBpsGBhsPBpsZDDYNDDYe1QWDjQeDTQODjQeDzQwGmwYGG4/qgsHGg8GmgcHGg8FmBoNNA4ONR3XBYOPBYNPAYOPBYDODwaaBwcajumCw8WCwaWCw8WCwmcFg08Bg41FdMNh4MNg0MNh4MNjMYLBpYLDxqC4YbDwYbBoYbDwYbGYw2DQw2HhUFww2Hgw2DQw2Hgw2MxhsGhhsPKoLBhsPBpsGBhsPBpsZDDYNDDYe1QWDjQeDTQODjQeDzQwGmwYGG4/qgsHGg8GmgcHGg8FmBoNNA4ONR3XBYOPBYNPAYON5zhns6mt2L060VXHeV17QOLBbFoWrEhns7Nmzg9tyIoPtxH50kjj38y8IHtNcrLp6d5sxdV3zhsaQC71+2bxVorrIYEPbcrLBYM9tcFaFnF0YbGgMOdGJb/r06cFtOdE+tK/QtlxoDag2+7x8oj1+eXjd5+Jj71q3v9A4ciKD7cR+1KNVnwumTJny3DHY4cOH2RbTR9usaaMqY8qkkdbb21s5PcOH28jRY23kqGrp6ektFmJoDDnRSWLziSODxzQbjdr39AyvfD56/eGqT+B4ZqVRf+0nNIacaB+qz9Zbz2gwrUKmN/ZT/XzEiJGjw8c0I9pHaN850VpTbUaN7Amv+YxsNq4z54KidzpwbtN+qp5PT0/Pc8dgtRC33XZb22abbSpjxowZwSuZ3Iwb3WN7HHWO7fq2b1bKtO327FiC1bELHdNcqPZqqE4k2LGTt7J5b/9W8JjmYo93fd9G9gwLjiEnZYI944wz7KSTTqqMU089tbhjEhpDTmbNnGEvfs2C4DHNyV+8+nibNWtmcAy5KBOsjltozedk4sSJHTkXaE1rbYeOaS7mveMsGzNp3S3v0Bhy8ZxKsFqIWihbb711ZZS3hapGBrvbO75jrzjyzEqZOnf3YhGGxpAT1UbHLnRMc6Hay2C18ENjyIVef+ykLe2Vb/lq8JjmYre//W5xMgqNISelwZ522mm2YMGCypDJyihCY8jJzBnT7UWH/UvwmObkhYceZzMbZh4aQy7Um6XBhtZ8TiZMmNCRc4HWtNZ26Jjm4pV/8zUbM3FW5eeC59R7sBhsPBhsPBhsGhhsPBhsGhhshDDY6sBg48Fg08Bg48Fg08BgI4TBVgcGGw8GmwYGGw8GmwYGGyEMtjow2Hgw2DQw2Hgw2DQw2AhhsNWBwcaDwaaBwcaDwaaBwUYIg60ODDYeDDYNDDYeDDYNDDZCGGx1YLDxYLBpYLDxYLBpYLARwmCrA4ONB4NNA4ONB4NNA4ONEAZbHRhsPBhsGhhsPBhsGhhshDDY6sBg48Fg08Bg48Fg08BgI4TBVgcGGw8GmwYGGw8GmwYGGyEMtjow2Hgw2DQw2Hgw2DQw2AhhsNWBwcaDwaaBwcaDwaaBwUYIg60ODDYeDDYNDDYeDDYNDDZCGGx1YLDxYLBpYLDxYLBpYLARwmCrA4ONB4NNA4ONB4NNA4ONEAZbHRhsPBhsGhhsPBhsGhhshDDY6sBg48Fg08Bg48Fg08BgI4TBVgcGGw8GmwYGGw8GmwYGGyEMtjow2Hgw2DQw2Hgw2DQw2AhhsNWBwcaDwaaBwcaDwaaBwUYIg60ODDYeDDYNDDYeDDYNDDZCMQY7d+5c23bbbStjxowZxSKsmvENg93z3T+0ee84q1Kmbb+3zZkzJziGnKg2OnahY5oL1V4GO3v27OAYcqHXHzd5duMk8Z3gMc3Fnn9/bnEyCo0hJ+PHjy/q85WvfMVOOeWUyvj85z9fGEVoDDmZ1TC9l7z2xOAxzcmL/3KhzZo1MziGXKg3S4MNrfmcTJw4sSPnAq1pre3QMc3Fbu/8ro2ZtEXl54IpU6Y8twx21KhRNnLkyMrQCTz0eG56enpsRO/wyhk+fFhw/7lRbao+dqr98OHDg9tyM2x0g522sWE7bl0df7GtDRs/1oa9cLtq2XxiUZ+pu+xiU172ssrQ6/c09hM6njnROuvtCa/3nBT76MD5QLXpxLrWOSf0eG40l9DxzM3wDqy13t5ebhHnpFO3iDfbbLPiCim0LSdloghty4lq0023iIftMMd6F/3Aeq85pzqWnmfDd3ux9V77/fD2TAx/4/yiPh9s9NoxFfL+BuMa+wkd05zMmjXLpk2bFtyWE+1D+wpty4V6U7XpplvEuhDuxH46cS7gPdjMYLBpdKXBXtMwvivPro4lP7Xh8/7Ceq/69/D2TAz/6wOK+vxjo9eOrpD3NcBg48Bg08FgBykMtjow2Hgw2DQw2Hgw2HQw2EEKg60ODDYeDDYNDDYeDDYdDHaQwmCrA4ONB4NNA4ONB4NNB4MdpDDY6sBg48Fg08Bg48Fg08FgBykMtjow2Hgw2DQw2Hgw2HQw2EEKg60ODDYeDDYNDDYeDDYdDHaQwmCrA4ONB4NNA4ONB4NNB4MdpDDY6sBg48Fg08Bg48Fg08FgBykMtjow2Hgw2DQw2Hgw2HQw2EEKg60ODDYeDDYNDDYeDDYdDHaQwmCrA4ONB4NNA4ONB4NNB4MdpDDY6sBg48Fg08Bg48Fg08FgBykMtjow2Hgw2DQw2Hgw2HQw2EEKg60ODDYeDDYNDDYeDDYdDHaQwmCrA4ONB4NNA4ONB4NNB4MdpDDY6sBg48Fg08Bg48Fg08FgBykMtjow2Hgw2DQw2Hgw2HQw2EEKg60ODDYeDDYNDDYeDDYdDHaQwmCrA4ONB4NNA4ONB4NNB4MdpDDY6sBg48Fg08Bg48Fg08FgBykMtjow2Hgw2DQw2Hgw2HQw2EEKg60ODDYeDDYNDDYeDDYdDHaQijHY7bbbzrbddtvKmDlzZrE4qkaLfc6cOcFtORk7dmxH9qPa6NiFjmkuVHs11ezZs4NjyIVef9gLtrHeO39hvbf/rDoe+Z0N32tn673jvPD2TAx/66FFfT7e6LUPVshHGoxv7Cd0THOik+qMGTOC23KifWhfoW25UG+qNurT0JrPycSJEztyLpDBdmI/nTgXTJky5bllsOPGjauU0aNHF1eTVaPFoaYKbctJb29vR/aj2hw6fbIdvfXMyjhmm1k2tren8vno9Xu01ipGZtTb77EqGNFA9XnZC15gL2lcpFTFzjvsUKy30DHNTSf6tBP70FpTbbYcM6qxxme1rPmcvHzi+I6cC3p6qu9RMXz48Mr3o4sFbhFnhFvEaag2P5v3Ilvzmr0rw167r81snIg6cYtYF0ChbTlRXXQSD23LiS4cVZ/TTjvNFixYUBknnXRSsd5CY8hJN94i3m/aZFv7l/sE130uPvG8dakyNI6ccIs4jzDYIYDBxoPBpoHBpoHBpoHB5hEGOwQw2Hgw2DQw2DQw2DQw2DzCYIcABhsPBpsGBpsGBpsGBptHGOwQwGDjwWDTwGDTwGDTwGDzCIMdAhhsPBhsGhhsGhhsGhhsHmGwQwCDjQeDTQODTQODTQODzSMMdghgsPFgsGlgsGlgsGlgsHmEwQ4BDDYeDDYNDDYNDDYNDDaPMNghgMHGg8GmgcGmgcGmgcHmEQY7BDDYeDDYNDDYNDDYNDDYPMJghwAGGw8GmwYGmwYGmwYGm0cY7BDAYOPBYNPAYNPAYNPAYPMIgx0CGGw8GGwaGGwaGGwaGGweYbBDAIONB4NNA4NNA4NNA4PNIwx2CGCw8WCwaWCwaWCwaWCweYTBDgEMNh4MNg0MNg0MNg0MNo8w2CGAwcaDwaaBwaaBwaaBweYRBjsEMNh4MNg0MNg0MNg0MNg8wmCHAAYbDwabBgabBgabBgabRxjsEMBg48Fg08Bg08Bg08Bg8wiDHQIYbDwYbBoYbBoYbBoYbB5hsEMAg40Hg00Dg00Dg00Dg80jDHYIYLDxYLBpYLBpYLBpYLB5tEkMdu7cubbttttWxowZM4qiVc2ECRNs9uzZwW050QmvE/tRbX6zx4vNjtivOt5wgM1qGKyaNzSGXOj1y+atEtVFBhvalpPx48cX9TnzzDPt5JNProzTTz+9WG+hMeREJz5dCIe25aS82A5ty4XWgGozf/rmZq/fP7zuM7HwBdt05Fwgg+3EftSjVZ8LpkyZ8twyWE1YVxVVoWQ5ceLEytGJddKkScFtORk5cmRH9qPaDBvbSEoTJ1XGcNHTU/l89Po9jf2EtuVE+9FJIrQtJzrhqT6ve93r7LDDDquM17zmNcV6C40hN7poCD2ek07sQ2ug6J3GOhg2oXXNZ6WxDjpxLujt7e3IftSjVe9Hd3+4RZwRbhGnodro2IWOaS5U+07cFtLraz+hbTlRXbhFHE833iLWcQut+ZzorlknzgXcIs4jDHYIYLDxYLBpYLBpYLBpYLB5hMEOAQw2Hgw2DQw2DQw2DQw2jzDYIYDBxoPBpoHBpoHBpoHB5hEGOwQw2Hgw2DQw2DQw2DQw2DzCYIcABhsPBpsGBpsGBpsGBptHGOwQwGDjwWDTwGDTwGDTwGDzCIMdAhhsPBhsGhhsGhhsGhhsHmGwQwCDjQeDTQODTQODTQODzSMMdghgsPFgsGlgsGlgsGlgsHmEwQ4BDDYeDDYNDDYNDDYNDDaPMNghgMHGg8GmgcGmgcGmgcHmEQY7BDDYeDDYNDDYNDDYNDDYPMJghwAGGw8GmwYGmwYGmwYGm0cY7BDAYOPBYNPAYNPAYNPAYPMIgx0CGGw8GGwaGGwaGGwaGGweYbBDAIONB4NNA4NNA4NNA4PNIwx2CGCw8WCwaWCwaWCwaWCweYTBDgEMNh4MNg0MNg0MNg0MNo8w2CGAwcaDwaaBwaaBwaaBweYRBjsEMNh4MNg0MNg0MNg0MNg8wmCHAAYbDwabBgabBgabBgabRxjsEMBg48Fg08Bg08Bg08Bg8wiDHQIYbDwYbBoYbBoYbBoYbB5tEoOdM2eOzZ49uzLKpqqa8ePHF4sjtC0natxO7Ee10bELHdNcqPal8YXGkAu9vvYT2pYT1UUGG9qWk7Fjxxb1+cxnPmPHHXdcZRx//PHFeguNISczZ860qVOnBrflRPvQvkLbcqE1UBpsaM3nRBf1nTgXyGA7sZ9OnAsmT5783DLYqg+orlhkFFWjVDFjxozgtpxosXdiP6qNjl3omOZCte/t7S2ScmgMudDraz+hbTlRXVSf0Lac6OSt+nzwgx+0Y445pjLe//73d2Q+Mj6d+ELbcqJ9aF+hbbnQGlBtdNxCaz4nnTrnjBw5siP76cS5YOLEidwizgm3iNNQbbhFHIfqwi3ieGQWOvmFtuVE+9C+QttyoTWg2ui4hdZ8TrhFHA/vwWYGg00Dg41HdcFg48Fg08Bg48FgM4PBpoHBxqO6YLDxYLBpYLDxYLCZwWDTwGDjUV0w2Hgw2DQw2Hgw2MxgsGlgsPGoLhhsPBhsGhhsPBhsZjDYNDDYeFQXDDYeDDYNDDYeDDYzGGwaGGw8qgsGGw8GmwYGGw8GmxkMNg0MNh7VBYONB4NNA4ONB4PNDAabBgYbj+qCwcaDwaaBwcaDwWYGg00Dg41HdcFg48Fg08Bg48FgM4PBpoHBxqO6YLDxYLBpYLDxYLCZwWDTwGDjUV0w2Hgw2DQw2Hgw2MxgsGlgsPGoLhhsPBhsGhhsPBhsZjDYNDDYeFQXDDYeDDYNDDYeDDYzGGwaGGw8qgsGGw8GmwYGGw8GmxkMNg0MNh7VBYONB4NNA4ONB4PNDAabBgYbj+qCwcaDwaaBwcaDwWYGg00Dg41HdcFg48Fg08Bg48FgM4PBpoHBxqO6YLDxYLBpYLDxYLCZwWDTwGDjUV0w2Hgw2DQw2Hgw2MxgsGlgsPGoLhhsPBhsGhhsPBhsZjDYNDDYeFQXDDYeDDYNDDYeDDYzGGwaGGw8qgsGGw8GmwYGGw8GmxkMNg0MNh7VBYONB4NNA4ON5zlnsFrwM2fOrIzJkyfb1KlTK2fs2LGFIYW25USLvRP7UW107ELHNBeqfW9vb3HiC40hF3p97Se0LSeqy8iRI4PbcqKTt+rzvve9z4466qjKUI9qvYXGkJMpU6bYpEmTgttyon1oX6FtudAaUG103EJrPie60OrEuUBruhP76cS5QBclzymD1ZXYnDlzKqO8aq0aJVhdfYW25UQn107sR7XRsQsd01yo9mWyDI0hF3p97Se0LSeqixJsaFtOygR78skn2yc/+cnKWLhwYbHeQmPIicxCJ7/QtpxoH9pXaFsutAZUGx230JrPicyiE+cCXSx0Yj+dOBdwizgzuvIqbw9UCbeI4+EWcRrcIk6jvNgObcuF1kBpsKE1nxNuEceDwWYGg00Dg41HdcFg48Fg08Bg48FgM4PBpoHBxqO6YLDxYLBpYLDxYLCZwWDTwGDjUV0w2Hgw2DQw2Hgw2MxgsGlgsPGoLhhsPBhsGhhsPBhsZjDYNDDYeFQXDDYeDDYNDDYeDDYzGGwaGGw8qgsGGw8GmwYGGw8GmxkMNg0MNh7VBYONB4NNA4ONB4PNDAabBgYbj+qCwcaDwaaBwcaDwWYGg00Dg41HdcFg48Fg08Bg48FgM4PBpoHBxqO6YLDxYLBpYLDxYLCZwWDTwGDjUV0w2Hgw2DQw2Hgw2MxgsGlgsPGoLhhsPBhsGhhsPBhsZjDYNDDYeFQXDDYeDDYNDDYeDDYzGGwaGGw8qgsGGw8GmwYGGw8GmxkMNg0MNh7VBYONB4NNA4ONB4PNDAabBgYbj+qCwcaDwaaBwcaDwWYGg00Dg41HdcFg48Fg08Bg48FgM4PBpoHBxqO6YLDxYLBpYLDxYLCZwWDTwGDjUV0w2Hgw2DQw2Hgw2MxgsGlgsPGoLhhsPBhsGhhsPBhsZjDYNDDYeFQXDDYeDDYNDDYeDDYzGGwaGGw8qgsGGw8GmwYGGw8GmxkMNg0MNh7VBYONB4NNA4ON5zlnsJMnT66U8ePHFwuxarQIJ06cGNyWEy3CTuxHtdGxCx3TnPT09FQ+H72+9hPalhPtR/UJbcvJyJEji/ocdthhNn/+/Mo4+OCDOzIf0Yk+7cQ+tAZUGx230HrPiS7mOnEu6O3t7ch+OnEuGDt27HPLYOfOnWvbbrttZcyYMaO4+qoaFW/OnDnBbTnRAunEflQbHbvQMc2Faq8T0ezZs4NjyIVeX/sJbcuJ6qKTXmhbTmQUqs9XvvIVO+WUUyrjC1/4QrHeQmPIiVKL7paEtuVE+9C+QttyoTWg2ui4hdZ8TmRGnTgXKDx0Yj+dOBdMmTKFW8Q54RZxGqoNt4jjUF24RRwPt4jT0EV9J84F3CLOIwx2CGCw8WCwaWCwaWCwaWCweYTBDgEMNh4MNg0MNg0MNg0MNo8w2CGAwcaDwaaBwaaBwaaBweYRBjsEMNh4MNg0MNg0MNg0MNg8wmCHAAYbDwabBgabBgabBgabRxjsEMBg48Fg08Bg08Bg08Bg8wiDHQIYbDwYbBoYbBoYbBoYbB5hsEMAg40Hg00Dg00Dg00Dg80jDHYIYLDxYLBpYLBpYLBpYLB5hMEOAQw2Hgw2DQw2DQw2DQw2jzDYIYDBxoPBpoHBpoHBpoHB5hEGOwQw2Hgw2DQw2DQw2DQw2DzCYIcABhsPBpsGBpsGBpsGBptHGOwQwGDjwWDTwGDTwGDTwGDzCIMdAhhsPBhsGhhsGhhsGhhsHmGwQwCDjQeDTQODTQODTQODzSMMdghgsPFgsGlgsGlgsGlgsHmEwQ4BDDYeDDYNDDYNDDaNbjbYO++8s/sM9vbbb8dgE8Fg48Fg08Bg49EawGDT6KTBXn311XbTTTetN9gVK1aQYFPAYNPAYONRXTDYeDDYNDDYeLoywa5cudIee+wxe/jhh4vJYLDpYLDxYLBpYLDxaA1gsGl00mCvvfZau+WWW4r3YJcvX14YrDxKXlUrg129evV6g33kkUeKySxduhSDTQSDjQeDTQODjUdrAINNo5MGu2jRIrvtttvsnnvusfvvv7+4u1oarDzLtcFKGtwzzzxTXA089dRT9vjjjxcRXJO5++67MdhEMNh4MNg0MNh4tAYw2DQ6ZbAf+chHbPHixcVngfSWpd5/1d1VeZS8Sp4l75KH5VRWg5Xza5C6Eli1apU98cQTxRWCorhS7DHHHGP77LOPHXbYYS0cfvjh2Tj44IPt0EMPrZz58+cHH8/Nq171quDjudl3332LYxc6pjnZf//9g/vPTaf204n6HHDAAUV9/umf/smOPfbYyvjQhz7UkfkccsghHelT7UP7Cm3LiWqj4xZa7znp1DmnG3pUdRcHHnhgsbZvvfXW9beHlV4V/uRR8ip5lrwrZ3qVKjPY5vdhNRm9D1veKtZ9cF1NKLLrjeerrrrKrrzySgAAgCEjT5G3yGP0yeElS5YU6XXZsmX2wAMPFG9dNr//qlvEtTFY0XybuNlkdatYH3jS1cSNN95oN9xwQ3EQAAAAhsJ1111XoH/LW+Qxet9VntP83qvSa//bw7Uw2NJkdUWg6K0rhPK9WE1ME9Q9cBmt0qyuKnR1oYMAAAAwVMrEKo+R18hz+purvEkeVdUHnKTsBqtBCg24NFn9npEmpFiuCSqi63axJq2rCh0AAACAoaD3WIX+LW+Rx8hr5DnyHnmQvEie1N9ca2GwpckqxZbvxSqGNyfZZqMVurIAAADIRekvpbE2J9fy1rA8Sl5Vmqtrg5UGMtnydnH5yeLSaPVRaR0AAACAXMhbSmOV58h7ytvC/c21ivQqVWqwzSZb3i4u06wiuiasKwpNHgAAIBfyFnmMvKZMrc23hfubay0MVmpnsqJMtJpwabgAAAC5KP2lTKyl/3TKXKVKDFYqB93faEuzbTZcAACAKij9pvSf/sZaUoUqM1ip/wREOblmwwUAAKiCZs8JeVKVqtRg+ys0OQAAgE7RSXXUYBFCCKHnijBYhBBCqAJhsAghhFAFwmARQgihCoTBIoQQQhUIg0UIIYQqEAaLEEIIVSAMFiGEEKpAGCxCCCFUgTBYhBBCqAJhsAghhFAFwmARQgihCoTBIoQQQgghhBCqhQiwCCGEEEIIIYRqIQIsQgghhBBCCKFaiACLEEIIIYQQQqgWIsAihBBCCCGEEKqFCLAIIYQQQgghhGohAixCCCGEEEIIoVqIAIsQQgghhBBCqBYiwCKEEEIIIYQQqoW6NsA+++yzAAAAAAAAz1m6UbUOsKEi9Wft2rUD8swzzwAAAAAAANSOUL4pCeWi/tRVtQuwoYMv+hetf4HXrFmzEatXrwYAAAAAAKgt/TNO/wzUPyOFclRJXVSbABs6yP0LUhaqLGBzcZ9++umCVatWreepp57aiJUrVwIAAAAAALijf3ZpzjVl1mnOP/1Dbf/sFMpXdZD7ABs6sM0HfqDQ2hxWm8Ppk08+WfDEE08UPP744+t57LHHAAAAAAAA3NGcW8osU2ab5pDbHGoHE2ZDecuzahdg2wXXUGhtDqzNIfXRRx8teOSRRwoefvhhAAAAAACATc5DDz1U0P/xMruUWaY53PYPtKEwO9gg61muA2zzQWw+uM3htTm4NodWFbEMqCr2gw8+aCtWrLAHHnjA7r//flu+fLndd999du+99xYsW7YMAAAAAABgk3PPPfcU9H+8zC7KMcozyjbKOGXYLUOtslAZZJvDbHOQrWuIrUWAbT6o5V2DUHgtg6tCqwKrgqoKf9ddd9nSpUvt9ttvtyVLlthtt91mt956q91yyy12880320033VRw4403AgAAAAAAbFIWL168nvKxMrMovyjHKNMo2yjnKPMo1CrQKgcpD/V/Z1ZBNvRurGjOWwTYRJUHrmQw77qqSOXdh2uuucb++Z//2a6++ur1xQYAAAAAAPCOQmpJaHszf/zjH4vcs2jRouLdWb0zq3dly48c613Z5iAbejdWlO/GNmcwj3IfYHUQy/BaBthQeC3feVWxxGWXXWYLFy4stiGEEEIIIYRQN0qfOj3++OPtqquusjvvvNPuvvvu9SF2oI8WN4fYMryWeH8XtjYBtrwzoLsEZXjVwS//OFP5seHyd1svueQSAixCCCGEEEKoq6UA+6lPfcouvfTS4mPF5UeKy9+RVUZqF2KVr8p3YgmwQ1AZXkt0MMuPDpfvvDb/ZWEVRQUqf+lZb6WnBNinVq21S/9wtv3+F39nF/36E3bH7Yv7tpg9vdrs5lvutvvuf6zvEYQQQgghhBDadCoD7B/+8IfiI8UKsXonVrmoOcTq3djyd2OVo8o/7tT/XdgyfxFgI1Qm/jK4NofX5ndfy/Da/O6r3jJXwS666KLoAPvow3fZ7/+7EVx/+y+25O6HbPHi39mlvznUbrrwBXbN7w+z8395rF176UK7/P/+2h6487t9P4UQQgghhBBCm0ZlgL3wwgvthhtuKH5vVn+8Vn/IViG2/ONO5e/Flr8T2/wurHKW8lZziC0zmTfVIsCWHx0WOsDlu68KrypAc4BVeL3jjjuiA+yFF55vvz735XbV+Qc3in2NXX7NTfa9H/zEFv3pb23FDS+3P1zwVbvm+ltsxSNrbNnSc+3i815q//ebH/b99ABa8Xv74kmfsI9/7GP2sf/3Q7v03sfN530MhBBCCCGEfEghTH+QSCFsIPQHW/WtIt6kT4IedNBB9u6///sin/SX8s2CRkaZN283u/jii/seHZoUYD/5yU/aBRdcUBw3/cXi8l1Yjad8J7b8ndj+78LW7WPEtQmwonwHtjnAqgC6k6CC6O5CGWBVwAULFgw6wP7mv/7GLj9vrN35p1l25W/2tJsueaPdedVudtflO9iSP2xnv/3RzvbTH3/Srr7yP23ZDW+3pZdsaRf84q/6frqfnn3CHvrVcfbiHY+3Xz3S99jay+1P162w5Y/2/W+EEEIIIYRQi/TVMbq2bycFM48BttTtS5bYYYe/2t7z3vfaigdX2LONXHPiZz5je+69j/3+9xf0PSuPygD7u9/9zq699triBoC+ZkeZqHwXtvmjxKEAW36MmACbqHYBtvnjw+W7r7qToILoz0anBtj/+ul/24c+cJidf+7WtnrJHHtqyfPsiVueb0/c+iJ78rYX20PX72CP3/xie3jxi23x/82ya87f1a7445l9P92qNasut++983B79Rs/aCef+W920d1l8R+2W395hn3sDW+wQxu84YDX2/u+/Bu7obFwHrz2G/ap1+5lL9xzf3vN+/7KDtvrVXbwKz5u/2drbdE5/8/estXf2Pfu02s8bXdd8kV7x+avtjOubyy4Vcvs6q98zN522BH2Or3mXkfZCRfeYY88fYl99kUvt8MPeIMd+JYjbf9d59i03T9oX7r44eKd4Cduv8j+7RON/ey2v+2///72po+cbr9dvtoeuv1C+48P/a29+rWN1/rL19ib3/QZO/e+x+2+675u7xi5je3zurfY6954ZuO4P6XBIIQQQgghZ9LvQn7zm9/8s5x99tlFgPGkbgiwpe64/XbrHTXahg0bZv/7q1/1PZpXZYA9//zzi3emr7/++o0+RqxjpTf69DwF2NDHiAmwQ1SnA+yvfvW/9rsLf22XXvkH+/RJp9qpp7zVrvjd4Xb7lXvbnVfsbLdd8hd29fnPs4t/sbOd8flD7B8+dHTj9f+376cHoUd/ZwsO2Mb2/OjP7cabfm7/vOcrbPuddrF5u+1qu+62p+111Bfsl5f+xL76yZPtn8+8uvwhu/TM4+w98/6f/a4RYG/44aftqBccY+c+oG2rbdnV/2ofmPsW+/bih2z5H0+xA6fsYC+at6vNa7Dr7nvb3p/8id368O/ti7u/zj7xlUvsnuI1b7SzXv0Ge/8Hf2J3PnulnXrIu+zdH/6VbXx6uM1+fdLb7PmTn28v32ue7TpvN9tt/pF29LmXN/b5LfvAdm+ybyx6ytb0PRshhBBCCKGc6oYAq3c2Tz7lFNt9zz2Lr/e8d9kyO/TwV9v73v/+IkzmFAHWgTodYO9ZdqddcfUFdtqXTrS3vO2N9tVvfNG+9d1v2ee+8GX76f/+t5156in2ocMPtU8e/U773PvfY5887CD74le/0vfTAT290p66+Ft2+r//j533u9/Z7353jn3siJfbkZ85z25eeaudd/Rettu+77WT//OCYpwXXHmL3f34/fa7E4+w1+3+evuX835nF//qdHvPvjvZi/Y/3n7XWDcPXfF1W/j6l9rbv9p4vYt+Ymd97HDbYupr7cxbVtnjK/7HTtpjR9v97WfYj3+j17zQLli8zJ5Y/Xs74YUH2AdPvcDuKAZ2nZ35qsPsqGO+34iyjaj6/ffZW//ytfaPXzm/+MjBH6+52ZavetJu+tkn7MidXmFHnPCLdeO7+DK76p777Z4rvmJHTXu1femqJxoRGiGEEEIIofzSR2B1Ta+PuQ6EfsdTH5P1JmWPk046qXgTSF9r01/6g7OHHHqoHXPMe4rskkMEWAfqdIDVvu5qLKbTPv8Z+/T/29du/P2Otur2ney6377ALvzpX9h3v/l6+9BHjrGj3/tO+9t3H2WfOfmzdvkVl/f99MBau3rdX05++unVtnpt34Ol1j5jq4ttDVY3Fkq5Np5d9/jqNffa7077sB2120ftF0/0bbNnbc1qPb/xevqBtY3j1LdFWrum3F+DNX2Lrm/xlSr/94ZHGsdYr1nsc41esk/Prn+8GH8xwL7XW/cEhBBCCCGEKlFxvfpn8CiNS7nlz6kMiTlEgHWg8mB1KsCW+q8ff9e+cOKu9h9ffaGd+81d7H//45X26x++wi795c72k7N2sG+c+S67Y+m6D+NWrxX2p699yo49fKH9ZvBTQAghhBBCCD2HRIB1oE0VYBFCCCGEEEKoTiLAOhABFiGEEEIIIYT+vAiwDkSARQghhBBCCKE/LwKsA+UKsAsXLux7RYQQQgghhBDqPikXEWA3sXIE2CuuuMLe/e53F18aLBa8Z7J99bjp9sWPTa0l3zx+uh39V2PXz6fuDB8+PPjvutJt82nm71471v71+BnBdVkHvtLo+xP/YfP186l7fbptfXVT7/Qf//z529l3vvN3DY6sMW+zrbceF5xf3eg/fubjh/5jn7X5sOKa7UsfD5/X68BZC2bYvi8Lz6+ONM+hG+bTTLf0zoc+9CG7+OKLCbCbSjkC7OWXX25HH310o6A9Nn7sMFv0053t8cvm2f0XvbKWPH3NbvbjLz2/MZ8RNmvWFrbFFvVmq622ss0228zGjBlT/Dv0nDqhOWgumlM3zGfkyJHrT4jnfO75tvra3YPrsg48euk8u+mXu9j0KaNs4qRptuWWWwbnXBc0/ilTptiIESOC2+uG+mXixIk2evTo2tdGcxk3bl3YE8cdd1jD0c5p8PWa8o0G324E8R0b8xld+3Ob1tesWbOK3pk2rTvOBZqH5qN51Xk+WluTJ09e3zt7vWxicc224g/h83odWLtod/vIO7foit4RWl+jRjV8tHG+7ob5lOeCqVOn1rp3NPbNN9/cxo8fbx/+8IcJsJtSBNhWCLC+0RwIsD4hwPpG/UKA9QoB1jMaPwHWLwRY3xBgCbDZRYBthQDrG82BAOsTAqxv1C8EWK8QYD2j8RNg/UKA9Q0BlgCbXQTYVgiwvtEcCLA+IcD6Rv1CgPUKAdYzGj8B1i8EWN8QYAmw2UWAbYUA6xvNgQDrEwKsb9QvBFivEGA9o/ETYP1CgPUNAZYAm10E2FYIsL7RHAiwPiHA+kb9QoD1CgHWMxo/AdYvBFjfEGAJsNlFgG2FAOsbzYEA6xMCrG/ULwRYrxBgPaPxE2D9QoD1DQGWAJtdBNhWCLC+0RwIsD4hwPpG/UKA9QoB1jMaPwHWLwRY3xBgCbDZRYBthQDrG82BAOsTAqxv1C8EWK8QYD2j8RNg/UKA9Q0BlgCbXQTYVgiwvtEcCLA+IcD6Rv1CgPUKAdYzGj8B1i8EWN8QYAmw2UWAbYUA6xvNgQDrEwKsb9QvBFivEGA9o/ETYP1CgPUNAZYAm10E2FYIsL7RHAiwPiHA+kb9QoD1CgHWMxo/AdYvBFjfEGAJsNlFgG2FAOsbzYEA6xMCrG/ULwRYrxBgPaPxE2D9QoD1DQGWAJtdBNhWCLC+0RwIsD4hwPpG/UKA9QoB1jMaPwHWLwRY3xBgCbDZRYBthQDrG82BAOsTAqxv1C8EWK8QYD2j8RNg/UKA9Q0BlgCbXQTYVgiwvtEcCLA+IcD6Rv1CgPUKAdYzGj8B1i8EWN8QYAmw2UWAbYUA6xvNgQDrEwKsb9QvBFivEGA9o/ETYP1CgPUNAZYAm10E2FYIsL7RHAiwPiHA+kb9QoD1CgHWMxo/AdYvBFjfEGAJsNlFgG2FAOsbzYEA6xMCrG/ULwRYrxBgPaPxE2D9QoD1DQGWAJtdBNhWCLC+0RwIsD4hwPpG/UKA9QoB1jMaPwHWLwRY3xBgCbDZRYBthQDrG82BAOsTAqxv1C8EWK8QYD2j8RNg/UKA9Q0BlgCbXQTYVgiwvtEcCLA+IcD6Rv1CgPUKAdYzGj8B1i8EWN8QYAmw2UWAbYUA6xvNgQDrEwKsb9QvBFivEGA9o/ETYP1CgPUNAZYAm10E2FYIsL7RHAiwPiHA+kb9QoD1CgHWMxo/AdYvBFjfEGAJsNmVO8COGzPMLv73v7A7f/tyu7lxIVtH7rvwFfZvn92+MZ8RNmPGTJs5s96o6dRso0ePslkzp9uM6dNqjeaguWhOmltoznWiOcB+89Pb2/LG+gutyzpwx29ebpf+4MU2bfNRNmHClMK0QnOuCxr/5Mmb24je3uBarBvqnc02G9+4MBpd+9qo98eOHbu+d449dn7Dm77W4NSaclqDL9q++z6vMZ9RtT+3aX3NmDGjuGidsvkkmzkjvCbrgsY/ZfPJxXw0rzr3j9bWpEmT1vfObi+dUFyz3fo/4fN6HVhx8Svs/W+Z2RW9I7S+RjYCrM7X9b9um2rTp00tfFThr869o7GrdwiwDpQzwPY2FqdOhpM3n2FTp21hU6bWk6nTt7TNJjQuWhtGNX369NqjphszarhNnrOL7fyGU+3Ff7mw1mgOk+e8rJiT5haac53QOisvJCZM3LxYf6F1WQfU9+p/nQv0zqUu9EJzrgsa/8QJ42zMhJmNtbfAXvLaE1rWY53Y+a9Os61eeoSN6BlW+9oU57UxY9b3zste9orGBcVH7b3v/Yea8gH7wAeOtdmz5xTvkNf93Kb1NXXqFOsdMdKet/8H7KVHnBxck3Vh58b4d9jv/Y1z27p3kercP1pbemev7J2RI0fX+ppNyDdHjxlfnBO64bpA60vn6dk7v744b4fWZF14yWtPtL94zadt9GbTG346vta9o7GrdwiwDlRFgNXHHbbZZhvbeuuta8m2225bLFS9M6Y7eXVH9Rg3usemzN3NdnvHd+wVR55ZazSHqXN3L+bUDR+taX4HVutO6y+0LuuA+l41KW/+1PmjQqL4uNCkzWzspC0ba+/L9sq3fLVlPdaJ3f72u7bNrm+1kY0Lo7rXpjivNX2EeJ999rHTTjvNFixYUEsWLlxoJ510km233XZd8eseWl8zZ0y3ESNH2YsO+xfb9W3/GlyTdWFeY/wvPPS4xrltZCMgzah1/2htNX+EWOutztdsQr45YcKE4lMZ3XBdoPWl8/S2895enLdDa7IuvPJvvmYvf/MZNmbiLNt88oRa947GzkeInYgA2woB1jcEWL8QYH1DgPULAdY3BFjfEGD9QoAlwFYiAmwrBFjfEGD9QoD1DQHWLwRY3xBgfUOA9QsBlgBbiQiwrRBgfUOA9QsB1jcEWL8QYH1DgPUNAdYvBFgCbCUiwLZCgPUNAdYvBFjfEGD9QoD1DQHWNwRYvxBgCbCViADbCgHWNwRYvxBgfUOA9QsB1jcEWN8QYP1CgCXAViICbCsEWN8QYP1CgPUNAdYvBFjfEGB9Q4D1CwGWAFuJCLCtEGB9Q4D1CwHWNwRYvxBgfUOA9Q0B1i8EWAJsJSLAtkKA9Q0B1i8EWN8QYP1CgPUNAdY3BFi/EGAJsJWIANsKAdY3BFi/EGB9Q4D1CwHWNwRY3xBg/UKAJcBWIgJsKwRY3xBg/UKA9Q0B1i8EWN8QYH1DgPULAZYAW4kIsK0QYH1DgPULAdY3BFi/EGB9Q4D1DQHWLwRYAmwlIsC2QoD1DQHWLwRY3xBg/UKA9Q0B1jcEWL8QYAmwlYgA2woB1jcEWL8QYH1DgPULAdY3BFjfEGD9QoAlwFYiAmwrBFjfEGD9QoD1DQHWLwRY3xBgfUOA9QsBlgBbiQiwrRBgfUOA9QsB1jcEWL8QYH1DgPUNAdYvBFgCbCUiwLZCgPUNAdYvBFjfEGD9QoD1DQHWNwRYvxBgCbCViADbCgHWNwRYvxBgfUOA9QsB1jcEWN8QYP1CgCXAViICbCsEWN8QYP1CgPUNAdYvBFjfEGB9Q4D1CwGWAFuJCLCtEGB9Q4D1CwHWNwRYvxBgfUOA9Q0B1i8EWAJsJSLAtkKA9Q0B1i8EWN8QYP1CgPUNAdY3BFi/EGAJsJWIANsKAdY3BFi/EGB9Q4D1CwHWNwRY3xBg/UKAJcBWIgJsKwRY3xBg/UKA9Q0B1i8EWN8QYH1DgPULAZYAW4kIsK0QYH1DgPULAdY3BFi/EGB9Q4D1DQHWLwRYAmwlqiLATp061WbMmFFcwNaRmTNn2qRJk4qL8ClTptQe1WP0yOE2YYsX2k4H/7M9/4AP1hrNYeIWLyrmpLmF5lwntM7KCwmtO62/0LqsA+p71UTnAs0lNN+6sdn4sTZ67BTbcbdjbMfd37vuvzXlRXsfa7O2399GNNbatNHjbGqNmTZmvI3p3dA7L95xR3v3295mb/vrv64lb2/wziOPtFmNHho1alRXnNsmN84BvY3zmy7Cdzzoo8HzeV3YqTH+bea9rXFuG9EIf/U+t2lt6QK87B2ttzpfswn5psJrt/SO6B0+zGbtdLDtdMj/C67JuvCC+R+257/qH23UuHV+Gpprndhss80IsB5URYDV3S/egfWD6qGGK+7q687XrFm1RnPQXDSnbrjTyjuwftH4p41tXOjtMMd6rvqe9Vz3H9Zz9dn15Y6fWc+H32LDd3ux9d76E+u95vvWe/U59aQxl+FvnL++d3b5xCfsHxuednRNOabB+xpsNX++jevz0dCarAvqnVmN87XOBdMagWJLPd7vXF4nNH7NQ/PRvOp8btPa4h1Y32h9KYxPnDihK67bZs2cWfSObi7UuXc0dt6BdSICbCtdHWC74MSuORBgfdLNAbb3iu+tC3xXnl1flvzUej7UCLDz/sJ6b/6x9V717+Hn1YElP7Hhf33A+t7Z5bjjCLCOUO+sD7DTpnXHuaAxDwKsT7o3wE7sivmU5wICLAE2mwiwrRBgfaM5EGB9QoB1DgHWLQRY3xTnAgKsWwiwviHAEmCziwDbCgHWN5oDAdYnBFjnEGDdQoD1TXEuIMC6hQDrGwIsATa7CLCtEGB9ozkQYH1CgHUOAdYtBFjfFOcCAqxbCLC+IcASYLOLANsKAdY3mgMB1icEWOcQYN1CgPVNcS4gwLqFAOsbAiwBNrsIsK0QYH2jORBgfUKAdQ4B1i0EWN8U5wICrFsIsL4hwBJgs4sA2woB1jeaAwHWJwRY5xBg3UKA9U1xLiDAuoUA6xsCLAE2uwiwrRBgfaM5EGB9QoB1DgHWLQRY3xTnAgKsWwiwviHAEmCziwDbCgHWN5oDAdYnBFjnEGDdQoD1TXEuIMC6hQDrGwIsATa7CLCtEGB9ozkQYH1CgHUOAdYtBFjfFOcCAqxbCLC+IcASYLOLANsKAdY3mgMB1icEWOcQYN1CgPVNcS4gwLqFAOsbAiwBNrsIsK0QYH2jORBgfUKAdQ4B1i0EWN8U5wICrFsIsL4hwBJgs4sA2woB1jeaAwHWJwRY5xBg3UKA9U1xLiDAuoUA6xsCLAE2uwiwrRBgfaM5EGB9QoB1DgHWLQRY3xTnAgKsWwiwviHAEmCziwDbCgHWN5oDAdYnBFjnEGDdQoD1TXEuIMC6hQDrGwIsATa7CLCtEGB9ozkQYH1CgHUOAdYtBFjfFOcCAqxbCLC+IcASYLOLANsKAdY3mgMB1icEWOcQYN1CgPVNcS4gwLqFAOsbAiwBNrsIsK0QYH2jORBgfUKAdQ4B1i0EWN8U5wICrFsIsL4hwBJgs4sA2woB1jeaAwHWJwRY5xBg3UKA9U1xLiDAuoUA6xsCLAE2uwiwrRBgfaM5EGB9QoB1DgHWLQRY3xTnAgKsWwiwviHAEmCziwDbCgHWN5oDAdYnBFjnEGDdQoD1TXEuIMC6hQDrGwIsATa7CLCtEGB9ozkQYH1CgHUOAdYtBFjfFOcCAqxbCLC+IcASYLOLANsKAdY3mgMB1icEWOcQYN1CgPVNcS4gwLqFAOsbAiwBNrsIsK0QYH2jORBgfUKAdQ4B1i0EWN8U5wICrFsIsL4hwBJgs6uKAKuTyKRJk4rGqyMa+7hx46ynp6cISXVH9dCJUCcP/Tv0nDqhOWgumlM3zEfrrLyQGDZ6jA0bv5kNG1dTNPax42xYY07qodB868a43pE2bGrjYu8f32zDjn3Luv/WlY+/w4bts7MN23qWDfvo223YB48MP68OaC4v2WF978zYd1972ac/bS9ZsKCWvLTBzo3xb7b99jayz0dD67FO6CJP5zeFitD2uqF5aD6aV2h7XdDaGj169Abf0bVbcQ4fv/H5vE7Ie0aMtJEju+M6R+iaWnXiXOAL3fAhwDpQFQF2zpw5Nnfu3OKOWB3ZbrvtbObMmcU7Y7rzVXdUD50AdeLQv0PPqROag+aiOXXDfJrfgT1/z5eYvfkgsze8qp789Xxb8+q9bIuxo2zi9Ok2e/bs4JzrgsavO8a6YRLaXjfUL7pBN2b0mNrXRnPRRUTZOwcccIB97atftVNPPbWWnHbaafbFL37Rnve853XFuVrrS+9WqHf0aYxuOBdoHpqP5lXn+Wht6V2ksncOnLG52Rvnm/3VAeHzeh048mA7ccdtbNjIMV1xXaD1pZv0Ol93w3zKc4E+xVDn3tHYp0yZQoD1oCoCrIrMR4j9oHqUd43079Bz6oTm0K0fIf7ZvBeZvX5/W/OavWuJvXZfW37wbjZzzCib0CUfG5RZyXhD2+uG+kWfMtFd/brXRnPRu/xl7+yzzz5FCFywYEEtWbhwoZ100knFDdRuOFdrffERYp9obTV/hHi/aZPNXrevrf3LfYLn9TqgEPuJ581pBNjRXXFdoPXFR4j9obHzEWInIsC2QoD1jeZAgPUJAdY36hcCrE8IsL7R+AmwfiHA+oYAS4DNLgJsKwRY32gOBFifEGB9o34hwPqEAOsbjZ8A6xcCrG8IsATY7CLAtkKA9Y3mQID1CQHWN+oXAqxPCLC+0fgJsH4hwPqGAEuAzS4CbCsEWN9oDgRYnxBgfaN+IcD6hADrG42fAOsXAqxvCLAE2OwiwLZCgPWN5kCA9QkB1jfqFwKsTwiwvtH4CbB+IcD6hgBLgM0uAmwrBFjfaA4EWJ8QYH2jfiHA+oQA6xuNnwDrFwKsbwiwBNjsIsC2QoD1jeZAgPUJAdY36hcCrE8IsL7R+AmwfiHA+oYAS4DNLgJsKwRY32gOBFifEGB9o34hwPqEAOsbjZ8A6xcCrG8IsATY7CLAtkKA9Y3mQID1CQHWN+oXAqxPCLC+0fgJsH4hwPqGAEuAzS4CbCsEWN9oDgRYnxBgfaN+IcD6hADrG42fAOsXAqxvCLAE2OwiwLZCgPWN5kCA9QkB1jfqFwKsTwiwvtH4CbB+IcD6hgBLgM0uAmwrBFjfaA4EWJ8QYH2jfiHA+oQA6xuNnwDrFwKsbwiwBNjsIsC2QoD1jeZAgPUJAdY36hcCrE8IsL7R+AmwfiHA+oYAS4DNLgJsKwRY32gOBFifEGB9o34hwPqEAOsbjZ8A6xcCrG8IsATY7CLAtkKA9Y3mQID1CQHWN+oXAqxPCLC+0fgJsH4hwPqGAEuAzS4CbCsEWN9oDgRYnxBgfaN+IcD6hADrG42fAOsXAqxvCLAE2OwiwLZCgPWN5kCA9QkB1jfqFwKsTwiwvtH4CbB+IcD6hgBLgM0uAmwrBFjfaA4EWJ8QYH2jfiHA+oQA6xuNnwDrFwKsbwiwBNjsIsC2QoD1jeZAgPUJAdY36hcCrE8IsL7R+AmwfiHA+oYAS4DNLgJsKwRY32gOBFifEGB9o34hwPqEAOsbjZ8A6xcCrG8IsATY7CLAtkKA9Y3mQID1CQHWN+oXAqxPCLC+0fgJsH4hwPqGAEuAzS4CbCsEWN9oDgRYnxBgfaN+IcD6hADrG42fAOsXAqxvCLAE2OwiwLZCgPWN5tCtAfa8vgD7TMOQ64gC7P0EWLeoX7o5wJ5++ulFEKwjJ5xwgn32s58lwDpF4+/2APtsI8CGzut1gADrGwIsATa7qgiwujiSAdcZhYrhw4cXc+kGVJuenp7gtjqiuWhOoW11Q+usvJDYffMJdsQWU+11M6fUkiNmTbXDp29uo1WfRg+F5ls3uu1coIuIbjkXlJ4jdEH+vOc9rwiAdWX77be3sWPHdk19dAGu3lEPhbbXjfJcoHmFttcJnQfK3pk2amRx7j5iVvi8XgfkmzuOH2vDhnfXdY7qFNpWN7rpXKCaEGAdqIoAO2fOHJs7d27xTmYd0UXEzJkzi0bTna+6o3pMmDChuDDSv0PPqROag+aiOXXDfLTOygsJrTutv9C6rAPqe9VEJ3jNZfbs2S3zrRMav+4Yaz6h7XVDtZk0aVJxk67utdFcdBFR9s4BBxxgX/va1+zUU0+tJfr485e+9KUihHfDuVrrS+9WqHdmzJjRFecCzUPz0bzqPB+tLb2LVPaO1ludr9mEfFPvVupTGXXvHaH1pdCn83U3zKc8F+hTDHXuHY1dn8oiwDpQFQFWReYjxH5QPfgIsV+aA6zWndZfaF3WAfW9aiKj0lzq/FEhofHzEWKfaC78DqxftL74CLFPtLaaP0Ks9VbnazYh3yxv1Ne9d4TWFx8h9ofGzkeInYgA2woB1jeaAwHWJwRY36g2BFifEGB9o/ETYP1CgPUNAZYAm10E2FYIsL7RHAiwPiHA+ka1IcD6hADrG42fAOsXAqxvCLAE2OwiwLZCgPWN5kCA9QkB1jeqDQHWJwRY32j8BFi/EGB9Q4AlwGYXAbYVAqxvNAcCrE8IsL5RbQiwPiHA+kbjJ8D6hQDrGwIsATa7CLCtEGB9ozkQYH1CgPWNakOA9QkB1jcaPwHWLwRY3xBgCbDZRYBthQDrG82BAOsTAqxvVBsCrE8IsL7R+AmwfiHA+oYAS4DNLgJsKwRY32gOBFifEGB9o9oQYH1CgPWNxk+A9QsB1jcEWAJsdhFgWyHA+kZzIMD6hADrG9WGAOsTAqxvNH4CrF8IsL4hwBJgs4sA2woB1jeaAwHWJwRY36g2BFifEGB9o/ETYP1CgPUNAZYAm10E2FYIsL7RHAiwPiHA+ka1IcD6hADrG42fAOsXAqxvCLAE2OwiwLZCgPWN5kCA9QkB1jeqDQHWJwRY32j8BFi/EGB9Q4AlwGYXAbYVAqxvNAcCrE8IsL5RbQiwPiHA+kbjJ8D6hQDrGwIsATa7CLCtEGB9ozkQYH1CgPWNakOA9QkB1jcaPwHWLwRY3xBgCbDZRYBthQDrG82BAOsTAqxvVBsCrE8IsL7R+AmwfiHA+oYAS4DNLgJsKwRY32gOBFifEGB9o9oQYH1CgPWNxk+A9QsB1jcEWAJsdhFgWyHA+kZzIMD6hADrG9WGAOsTAqxvNH4CrF8IsL4hwBJgs4sA2woB1jeaAwHWJwRY36g2BFifEGB9o/ETYP1CgPUNAZYAm10E2FYIsL7RHAiwPiHA+ka1IcD6hADrG42fAOsXAqxvCLAE2OwiwLZCgPWN5kCA9QkB1jeqDQHWJwRY32j8BFi/EGB9Q4AlwGYXAbYVAqxvNAcCrE8IsL5RbQiwPiHA+kbjJ8D6hQDrGwIsATa7CLCtEGB9ozkQYH1CgPWNakOA9QkB1jcaPwHWLwRY3xBgCbDZRYBthQDrG82BAOsTAqxvVBsCrE8IsL7R+AmwfiHA+oYAS4DNrioC7OzZs4uTiU6IdWTu3LnrA6wWa91RPcoAq3+HnlMnNIcywHbDfPoHWK2/0LqsA+p71aQMsDLe0JzrgsZfBtjQ9rqh2pQBtu610VyaA+y+++5rX/jCF+zEE0+sJZ/5zGfslFNOse23374rztXlRXcZYLvhXFAGWM2rzvPR2uofYOt8zSbkm2WArXvvCK2vMsB2w3zKc4ECbJ17R2MnwDpRFQFWi1QX5fpvHdHYNZfhw4cHt9eRnp6erpqP5qI5hbbVDc2lvJDQuqt77+i/mpPm0n97HeFc4Jfm3tGFq26a6AKpriggqYe6ab1xLvCJzgNl72hOdfYdofFzneObbjkXaA4EWAeqIsDqblGd7+bpI1wzZswoToihOzB1Q/XQncluewdWc+qG+WidlRcSWndaf6F1WQea34HVXOp8p1Vo/AoWmk9oe91QbSZNmtSV78Duv//+9uUvf9k++9nP1pKTTz7ZTj/9dNthhx267h3Ybvk0huah+XTDO7B6F6nsnW54B1a+qXcru+0dWJ2vu2E+3fJpDI1dn8oiwDpQFQFWBdYJJfR7CnVAJ3IZlYKFmq7uqB78DqxfmgOs1p3WX2hd1gH1vWpSXrTqhB+ac13Q+PkdWJ9oLvwOrF+0vvgdWJ9obfE7sL7R+uJ3YP2hsfMRYiciwLZCgPWN5kCA9QkB1jeqDQHWJwRY32j8BFi/EGB9Q4AlwGYXAbYVAqxvNAcCrE8IsL5RbQiwPiHA+kbjJ8D6hQDrGwIsATa7CLCtEGB9ozkQYH1CgPWNakOA9QkB1jcaPwHWLwRY3xBgCbDZRYBthQDrG82BAOsTAqxvVBsCrE8IsL7R+AmwfiHA+oYAS4DNLgJsKwRY32gOBFifEGB9o9oQYH1CgPWNxk+A9QsB1jcEWAJsdhFgWyHA+kZzIMD6hADrG9WGAOsTAqxvNH4CrF8IsL4hwBJgs4sA2woB1jeaAwHWJwRY36g2BFifEGB9o/ETYP1CgPUNAZYAm10E2FYIsL7RHAiwPiHA+ka1IcD6hADrG42fAOsXAqxvCLAE2OwiwLZCgPWN5kCA9QkB1jeqDQHWJwRY32j8BFi/EGB9Q4AlwGYXAbYVAqxvNAcCrE8IsL5RbQiwPiHA+kbjJ8D6hQDrGwIsATa7CLCtEGB9ozkQYH1CgPWNakOA9QkB1jcaPwHWLwRY3xBgCbDZRYBthQDrG82BAOsTAqxvVBsCrE8IsL7R+AmwfiHA+oYAS4DNLgJsKwRY32gOBFifEGB9o9oQYH1CgPWNxk+A9QsB1jcEWAJsdhFgWyHA+kZzIMD6hADrG9WGAOsTAqxvNH4CrF8IsL4hwBJgs4sA2woB1jeaAwHWJwRY36g2BFifEGB9o/ETYP1CgPUNAZYAm10E2FYIsL7RHAiwPiHA+ka1IcD6hADrG42fAOsXAqxvCLAE2OwiwLZCgPWN5kCA9QkB1jeqDQHWJwRY32j8BFi/EGB9Q4AlwGYXAbYVAqxvNAcCrE8IsL5RbQiwPiHA+kbjJ8D6hQDrGwIsATa7CLCtEGB9ozkQYH1CgPWNakOA9QkB1jcaPwHWLwRY3xBgCbDZRYBthQDrG82BAOsTAqxvVBsCrE8IsL7R+AmwfiHA+oYAS4DNLgJsKwRY32gOBFifEGB9o9oQYH1CgPWNxk+A9QsB1jcEWAJsdhFgWyHA+kZzIMD6hADrG9WGAOsTAqxvNH4CrF8IsL4hwBJgs6uKADt79mybO3ducUKpI7qAmDFjRhEstFjrjuqhE7tMSv8OPadOaA6ai+bUDfNpDrBad1p/oXVZB9T3qomMSnOR8YbmXBc0fhmu5hPaXjdUm0mTJhUBtu610Vx0EVH2zv77729nnnmmnXzyybXklFNOsdNPP9122GGHrjhXlxfd6h3dzOqGc4HmofloXnWej9aWLsLL3tF6q/M1m5BvKuwpwNa9d4TWlwKsztfdMJ/yXKCbQHXuHY1dN7UJsA5URYDVItVFeZ3RXIYPH17MpRvo6enpqvloLppTaFvd0FzKCwmtu9B6rBPlnDSX/nOtI5wL/KK5lL2jd2N100QXSHWl/ORPN603zgU+ae4dzan/ebyOcJ3jm245F2gOBFgHqiLA6g6F7ojpIyl1RHciywuJ8mMDdUb14CPEftE6Ky8ktO60/kLrsg6o71UTneQ1F92xDM25Lmj8fITYJ5pL80eI9913X/vCF75gJ5xwQi058cQTi3dit99++644V2t98RFin2ht9f8IcZ2v2YR8k48Q+4WPEBNgs6uqAKsTSuj3FOqATuQEWL9oDt0cYLX+QuuyDqjvVRMCrE9UG34H1if8DqxvNP5uDrB1vmYT8k0CrF8IsATY7CLAtkKA9Y3mQID1CQHWN6oNAdYnBFjfaPwEWL8QYH1DgCXAZhcBthUCrG80BwKsTwiwvlFtCLA+IcD6RuMnwPqFAOsbAiwBNrsIsK0QYH2jORBgfUKA9Y1qQ4D1CQHWNxo/AdYvBFjfEGAJsNlFgG2FAOsbzYEA6xMCrG9UGwKsTwiwvtH4CbB+IcD6hgBLgM0uAmwrBFjfaA4EWJ8QYH2j2hBgfUKA9Y3GT4D1CwHWNwRYAmx2EWBbIcD6RnMgwPqEAOsb1YYA6xMCrG80fgKsXwiwviHAEmCziwDbCgHWN5oDAdYnBFjfqDYEWJ8QYH2j8RNg/UKA9Q0BlgCbXQTYVgiwvtEcCLA+IcD6RrUhwPqEAOsbjZ8A6xcCrG8IsATY7CLAtkKA9Y3mQID1CQHWN6oNAdYnBFjfaPwEWL8QYH1DgCXAZhcBthUCrG80BwKsTwiwvlFtCLA+IcD6RuMnwPqFAOsbAiwBNrsIsK0QYH2jORBgfUKA9Y1qQ4D1CQHWNxo/AdYvBFjfEGAJsNlFgG2FAOsbzYEA6xMCrG9UGwKsTwiwvtH4CbB+IcD6hgBLgM0uAmwrBFjfaA4EWJ8QYH2j2hBgfUKA9Y3GT4D1CwHWNwRYAmx2EWBbIcD6RnMgwPqEAOsb1YYA6xMCrG80fgKsXwiwviHAEmCziwDbCgHWN5oDAdYnBFjfqDYEWJ8QYH2j8RNg/UKA9Q0BlgCbXQTYVgiwvtEcCLA+IcD6RrUhwPqEAOsbjZ8A6xcCrG8IsATY7CLAtkKA9Y3mQID1CQHWN6oNAdYnBFjfaPwEWL8QYH1DgCXAZhcBthUCrG80BwKsTwiwvlFtCLA+IcD6RuMnwPqFAOsbAiwBNrsIsK0QYH2jORBgfUKA9Y1qQ4D1CQHWNxo/AdYvBFjfEGAJsNlFgG2FAOsbzYEA6xMCrG9UGwKsTwiwvtH4CbB+IcD6hgBLgM0uAmwrBFjfaA4EWJ8QYH2j2hBgfUKA9Y3GT4D1CwHWNwRYAmx2EWBbIcD6RnMgwPqEAOsb1YYA6xMCrG80fgKsXwiwviHAEmCzq4oAO2fOnMKEdUKpI9tvv73NnDmzCBY6cdQd1aM8sevfoefUCc1Bc9GcumE+zQFW607rL7Qu64D6XjWRUWkus2fPbplvndD4ZbiaT2h73VBtJk2aVFyw1r02mosuIsreOeCAA+xrX/uanXrqqbXk9NNPty996Uv2vOc9ryvO1VpfuthT78yYMaMrzgWah+ajedV5Plpbuggve0frrc7XbEK+qbCnm1p17x2h9aUAq/N1N8ynPBfoxnade0dj101tAqwDVRFgdXGkE2Kd0Ylj+PDhxTsVdUf1UG16enqKf4eeUyc0B81Fc+qG+WidlRcSWneh9VgnVBPNSXMJzbdu6AZDN50LdBGh/gltrxOaS+k5QhcVO+64YxEA68oLXvCC4gK8W87VopvOBd1yXaC11XzjVOstdC6vGzq3dct1gVBdNKduOhdo3YW21QnNgQDrQFUEWN2l4CPEflA9+AixX5ovJPgIsS80fj5C7BPNhY8Q+0Xri48Q+0Rri48Q+0brSzdM+AixLzR2PkLsRATYVgiwvtEcCLA+IcD6RrUhwPqEAOsbjZ8A6xcCrG8IsATY7CLAtkKA9Y3mQID1CQHWN6oNAdYnBFjfaPwEWL8QYH1DgCXAZhcBthUCrG80BwKsTwiwvlFtCLA+IcD6RuMnwPqFAOsbAiwBNrsIsK0QYH2jORBgfUKA9Y1qQ4D1CQHWNxo/AdYvBFjfEGAJsNlFgG2FAOsbzYEA6xMCrG9UGwKsTwiwvtH4CbB+IcD6hgBLgM0uAmwrBFjfaA4EWJ8QYH2j2hBgfUKA9Y3GT4D1CwHWNwRYAmx2EWBbIcD6RnMgwPqEAOsb1YYA6xMCrG80fgKsXwiwviHAEmCziwDbCgHWN5oDAdYnBFjfqDYEWJ8QYH2j8RNg/UKA9Q0BlgCbXQTYVgiwvtEcCLA+IcD6RrUhwPqEAOsbjZ8A6xcCrG8IsATY7CLAtkKA9Y3mQID1CQHWN6oNAdYnBFjfaPwEWL8QYH1DgCXAZhcBthUCrG80BwKsTwiwvlFtCLA+IcD6RuMnwPqFAOsbAiwBNrsIsK0QYH2jORBgfUKA9Y1qQ4D1CQHWNxo/AdYvBFjfEGAJsNlFgG2FAOsbzYEA6xMCrG9UGwKsTwiwvtH4CbB+IcD6hgBLgM0uAmwrBFjfaA4EWJ8QYH2j2hBgfUKA9Y3GT4D1CwHWNwRYAmx2EWBbIcD6RnMgwPqEAOsb1YYA6xMCrG80fgKsXwiwviHAEmCziwDbCgHWN5oDAdYnBFjfqDYEWJ8QYH2j8RNg/UKA9Q0BlgCbXQTYVgiwvtEcCLA+IcD6RrUhwPqEAOsbjZ8A6xcCrG8IsATY7CLAtkKA9Y3mQID1CQHWN6oNAdYnBFjfaPwEWL8QYH1DgCXAZtdQA6yKddlllxFgHaN6EGD9QoD1i8ZPgPWJ5kKA9YvWFwHWJ1pbBFjfaH0RYP2hsTcH2IsuusiuvvpqW7Rokd100022ZMmSIhsRYDsgAmwrBFjfaA4EWJ8QYH2j2hBgfUKA9Y3GT4D1CwHWNwRYAmx2DTXA8hFi/6geBFi/EGD9ovETYH2iuRBg/aL1RYD1idYWAdY3Wl8EWH9o7HyE2InaBdhVq1bZypUr7YknnrDHHnusOPgqwooVK4rClAH2iiuuIMA6RvUgwPqFAOsXjZ8A6xPNhQDrF60vAqxPtLYIsL7R+iLA+kNjbw6wf/zjH+26666zxYsX26233mpLly61u+++25YtW2bLly8v3vDTG396A1A5SnlKuUr5igA7RIUC7OrVqwt0gJvfhdXBVxF0N0GFUZEUYq+88soiwPb09BQnQzUbAdYPqgcB1i8EWL9o/ARYn2guBFi/aH0RYH2itUWA9Y3WFwHWHxp7c4C99NJLi3dfy48P691XhVe9yafwqjf8Qu++Kl+VWYsAOwSVAbZEB1J3BsqPEZfvwpYhtnwXVh8jVqH09rkCbHky1IWrCq0FW0e0QHXS0FzUbHWnDOPDhw8v/h16Tp3QHDQXzakb5lP2jdC60/oLrcs6oL5XTcq56IIvNOe6oPHLqLrpXKDwqvnUvTaaS/mpH7HHHnvY5z//+SII1pETTjjBTj75ZJs9e3ZXnKu1vnTzR7VRsOiGc4HmofloXnWej9aWgl7ZO1pvdb5mE2Xg0xspde8dofWl2uh83Q3zKc8FeuOhzr2jsevGqcL4Rz7ykeITqAqvt912W/Hua/+PDofefS0/PiyUt8rwWgZYj3IdYMsQW74LW74TW74L2xxgdSdBRdG7sCrULbfcYuedd5794he/KPjpT39qP/7xj+1HP/qR/ed//mfBD3/4w4If/OAH9h//8R/2/e9/3zUao8Ya2lZHum0+dVlHg0FzKemmOXXLXDgX+KWcizj77LPtrLPOsm9/+9u1ReM/55xzumq9aS6cC/zR3DvdNKduWWuim3pH1G0+5Xoq88u5555b5BnlG/Ff//VfxbuvCq/6dUp9KlVv7Cm8lu+8luFV+Uk5qo7vvkq1DLDlu7BliC0DbPkHnVQkBVnddSj/KrGKqV9mvvHGG4vPhavA+oz4tddeW7xbq7/YddVVVxUfPQYAAAAAAPCCcoryilB+UY654YYbimyjjKPfeQ390abm8Kq8VL77WmYp5aoyvBJgh6jmANs/yDaHWL31rc9vNwdZFUlvk+uz3gqyuvugQpa/H6u7EmWoVbH1bq0Kr7fcAQAAAAAANiUKpiXlY8oryi3KL8oxyjP6qLDyjXJO/+CqN/bK33kt33lVbmr+6HBzeFXeKiHAJqg8aCUKryXNIbb8OHH/34nVXYYyyKqAZZhVUZsDre5SqOhCCwAAAAAAAGBTojfcSsrHysyi/FIGVuUa5RvlnPIPNZVfldP/I8PNf7SpObyW77qW/23OYB7lNsBKzQdPDCbElu/GNv9ubBlmdReiOdDq7kQZastgCwAAAAAA4I0ysyi/KMc0B9by3dbmjwo3B9fyXddQeC3pn728qjYBtvkt7fIOgQ56KMiG3pFVIUvKMFsG2jLUAgAAAAAAbGoUTsuA2kyZXcoso1zTnHOag2sZWkPBtQyv/TNWc/7yKtcBVmo+iCXlAS7vFvQPsv3fle3/zmwZavsHW92xAAAAAAAA8EZzbimzTJltmt9pLYNrGVpDwbU5vIbylme5D7BS6KCWB7w5yLYLs/3fnW0OtiUqPAAAAAAAgDeac0tznikzTpl52oVW0ZyjQjnLu2oRYKXQwS1pLkJzccqClYG2pCxqSVlsAAAAAAAAz/TPMs05pzn/NOei5rwUylMldVBtAmx/hQ54SXOBRHPxmmkuMAAAAAAAQF0I5RvRPwuF8lJJHVXbANtfoYIMRP+iAgAAAAAA1JFQ3hmIblDXBNgUhYoKAAAAAADgneeqntMBFiGEEEIIIYRQfUSARQghhBBCCCFUCxFgEUIIIYQQQgjVQgRYhBBCCCGEEEK1EAEWIYQQQgghhFAtRIBFCCGEEEIIIVQLEWARQgghhBBCCNVCBFiEEEIIIYQQQrUQARYhhBBCCCGEUC1EgEUIIYQQQgghVAsRYBFCCCGEEEII1UIEWIQQQgghhBBCNZDZ/weyffD6BnzrLQAAAABJRU5ErkJggg==;" vertex="1" parent="1">
          <mxGeometry x="30" y="-650" width="944" height="528" as="geometry" />
        </mxCell>
        <mxCell id="yVKTG6r9DrGv_Ry2zYl0-2" value="" style="rounded=0;whiteSpace=wrap;html=1;strokeColor=light-dark(#ff0000, #ededed);fillColor=none;strokeWidth=3;" vertex="1" parent="1">
          <mxGeometry x="60" y="-376" width="880" height="210" as="geometry" />
        </mxCell>
        <mxCell id="yVKTG6r9DrGv_Ry2zYl0-3" value="" style="rounded=0;whiteSpace=wrap;html=1;strokeColor=light-dark(#ff0000, #ededed);fillColor=none;strokeWidth=3;" vertex="1" parent="1">
          <mxGeometry x="60" y="-586" width="880" height="210" as="geometry" />
        </mxCell>
        <mxCell id="yVKTG6r9DrGv_Ry2zYl0-4" value="" style="rounded=0;whiteSpace=wrap;html=1;strokeColor=light-dark(#33FF33,#EDEDED);fillColor=none;strokeWidth=3;" vertex="1" parent="1">
          <mxGeometry x="80" y="-582" width="840" height="49" as="geometry" />
        </mxCell>
        <mxCell id="yVKTG6r9DrGv_Ry2zYl0-5" value="&lt;h4&gt;&lt;b&gt;&lt;font style=&quot;color: rgb(255, 0, 0); font-size: 16px;&quot;&gt;RIGHT HAND&lt;/font&gt;&lt;/b&gt;&lt;span style=&quot;color: rgba(0, 0, 0, 0); font-family: monospace; font-size: 0px; text-align: start; text-wrap-mode: nowrap; background-color: transparent; font-weight: normal;&quot;&gt;%3CmxGraphModel%3E%3Croot%3E%3CmxCell%20id%3D%220%22%2F%3E%3CmxCell%20id%3D%221%22%20parent%3D%220%22%2F%3E%3CmxCell%20id%3D%222%22%20value%3D%22%22%20style%3D%22rounded%3D0%3BwhiteSpace%3Dwrap%3Bhtml%3D1%3BstrokeColor%3Dlight-dark(%23ff0000%2C%20%23ededed)%3BfillColor%3Dnone%3BstrokeWidth%3D3%3B%22%20vertex%3D%221%22%20parent%3D%221%22%3E%3CmxGeometry%20x%3D%22110%22%20y%3D%22-56%22%20width%3D%22880%22%20height%3D%22210%22%20as%3D%22geometry%22%2F%3E%3C%2FmxCell%3E%3C%2Froot%3E%3C%2FmxGraphModel%3E&lt;/span&gt;&lt;/h4&gt;" style="text;html=1;whiteSpace=wrap;overflow=hidden;rounded=0;rotation=270;align=center;" vertex="1" parent="1">
          <mxGeometry x="-40" y="-541" width="210" height="120" as="geometry" />
        </mxCell>
        <mxCell id="yVKTG6r9DrGv_Ry2zYl0-6" value="&lt;h4&gt;&lt;span&gt;&lt;font style=&quot;color: rgb(255, 0, 0); font-size: 16px;&quot;&gt;LEFT HAND&lt;/font&gt;&lt;/span&gt;&lt;span style=&quot;color: rgba(0, 0, 0, 0); font-family: monospace; font-size: 0px; text-align: start; text-wrap-mode: nowrap; background-color: transparent;&quot;&gt;%3CmxGraphModel%3E%3Croot%3E%3CmxCell%20id%3D%220%22%2F%3E%3CmxCell%20id%3D%221%22%20parent%3D%220%22%2F%3E%3CmxCell%20id%3D%222%22%20value%3D%22%22%20style%3D%22rounded%3D0%3BwhiteSpace%3Dwrap%3Bhtml%3D1%3BstrokeColor%3Dlight-dark(%23ff0000%2C%20%23ededed)%3BfillColor%3Dnone%3BstrokeWidth%3D3%3B%22%20vertex%3D%221%22%20parent%3D%221%22%3E%3CmxGeometry%20x%3D%22110%22%20y%3D%22-56%22%20width%3D%22880%22%20height%3D%22210%22%20as%3D%22geometry%22%2F%3E%3C%2FmxCell%3E%3C%2Froot%3E%3C%2FmxGraphModel%3E&lt;/span&gt;&lt;/h4&gt;" style="text;html=1;whiteSpace=wrap;overflow=hidden;rounded=0;rotation=270;align=center;fontStyle=0" vertex="1" parent="1">
          <mxGeometry x="-40" y="-331" width="210" height="120" as="geometry" />
        </mxCell>
        <mxCell id="yVKTG6r9DrGv_Ry2zYl0-8" value="" style="rounded=0;whiteSpace=wrap;html=1;strokeColor=light-dark(#FF33FF,#EDEDED);fillColor=none;strokeWidth=3;" vertex="1" parent="1">
          <mxGeometry x="501" y="-582" width="50" height="412" as="geometry" />
        </mxCell>
        <mxCell id="yVKTG6r9DrGv_Ry2zYl0-9" value="&lt;font style=&quot;font-size: 16px; color: rgb(255, 51, 255);&quot;&gt;&lt;b&gt;CURRENT POSITION&lt;/b&gt;&lt;/font&gt;" style="text;html=1;align=center;verticalAlign=middle;whiteSpace=wrap;rounded=0;" vertex="1" parent="1">
          <mxGeometry x="551" y="-200" width="170" height="30" as="geometry" />
        </mxCell>
        <mxCell id="yVKTG6r9DrGv_Ry2zYl0-10" value="&lt;font style=&quot;font-size: 16px; color: rgb(0, 255, 0);&quot;&gt;&lt;b style=&quot;&quot;&gt;SEQUENCE PATTERN 1&lt;/b&gt;&lt;/font&gt;" style="text;html=1;align=center;verticalAlign=middle;whiteSpace=wrap;rounded=0;" vertex="1" parent="1">
          <mxGeometry x="150" y="-572.5" width="130" height="30" as="geometry" />
        </mxCell>
      </root>
    </mxGraphModel>
  </diagram>
  <diagram id="GIWPzk8247UtRgcNEH-9" name="Page-3">
    <mxGraphModel dx="1247" dy="649" grid="1" gridSize="10" guides="1" tooltips="1" connect="1" arrows="1" fold="1" page="1" pageScale="1" pageWidth="827" pageHeight="1169" math="0" shadow="0">
      <root>
        <mxCell id="0" />
        <mxCell id="1" parent="0" />
        <mxCell id="nInNXgktZY5D4JE9j20Z-1" value="MAIN" style="rounded=0;whiteSpace=wrap;html=1;fillColor=#f8cecc;strokeColor=#b85450;fontStyle=1" vertex="1" parent="1">
          <mxGeometry x="120" y="210" width="630" height="30" as="geometry" />
        </mxCell>
        <mxCell id="nInNXgktZY5D4JE9j20Z-4" value="" style="rounded=0;whiteSpace=wrap;html=1;fillColor=none;strokeColor=#b85450;" vertex="1" parent="1">
          <mxGeometry x="120" y="240" width="630" height="180" as="geometry" />
        </mxCell>
        <mxCell id="nInNXgktZY5D4JE9j20Z-7" style="edgeStyle=orthogonalEdgeStyle;rounded=0;orthogonalLoop=1;jettySize=auto;html=1;exitX=0.5;exitY=1;exitDx=0;exitDy=0;" edge="1" parent="1" source="nInNXgktZY5D4JE9j20Z-5" target="nInNXgktZY5D4JE9j20Z-6">
          <mxGeometry relative="1" as="geometry">
            <Array as="points">
              <mxPoint x="359" y="310" />
              <mxPoint x="259" y="310" />
            </Array>
          </mxGeometry>
        </mxCell>
        <mxCell id="nInNXgktZY5D4JE9j20Z-8" value="&amp;nbsp;STEP 1" style="edgeLabel;html=1;align=center;verticalAlign=middle;resizable=0;points=[];" vertex="1" connectable="0" parent="nInNXgktZY5D4JE9j20Z-7">
          <mxGeometry x="-0.0244" y="1" relative="1" as="geometry">
            <mxPoint y="-1" as="offset" />
          </mxGeometry>
        </mxCell>
        <mxCell id="nInNXgktZY5D4JE9j20Z-10" style="edgeStyle=orthogonalEdgeStyle;rounded=0;orthogonalLoop=1;jettySize=auto;html=1;exitX=0.5;exitY=1;exitDx=0;exitDy=0;" edge="1" parent="1" source="nInNXgktZY5D4JE9j20Z-5" target="nInNXgktZY5D4JE9j20Z-9">
          <mxGeometry relative="1" as="geometry" />
        </mxCell>
        <mxCell id="nInNXgktZY5D4JE9j20Z-11" value="STEP 2&amp;nbsp;" style="edgeLabel;html=1;align=center;verticalAlign=middle;resizable=0;points=[];" vertex="1" connectable="0" parent="nInNXgktZY5D4JE9j20Z-10">
          <mxGeometry x="-0.1313" y="-3" relative="1" as="geometry">
            <mxPoint y="-3" as="offset" />
          </mxGeometry>
        </mxCell>
        <mxCell id="nInNXgktZY5D4JE9j20Z-5" value="INIT" style="rounded=0;whiteSpace=wrap;html=1;fillColor=#F8D420;fontStyle=1" vertex="1" parent="1">
          <mxGeometry x="299" y="260" width="120" height="30" as="geometry" />
        </mxCell>
        <mxCell id="nInNXgktZY5D4JE9j20Z-12" style="edgeStyle=orthogonalEdgeStyle;rounded=0;orthogonalLoop=1;jettySize=auto;html=1;exitX=0.5;exitY=1;exitDx=0;exitDy=0;entryX=0.5;entryY=1;entryDx=0;entryDy=0;endArrow=none;endFill=0;" edge="1" parent="1" source="nInNXgktZY5D4JE9j20Z-6" target="nInNXgktZY5D4JE9j20Z-9">
          <mxGeometry relative="1" as="geometry">
            <Array as="points">
              <mxPoint x="259" y="380" />
              <mxPoint x="459" y="380" />
            </Array>
          </mxGeometry>
        </mxCell>
        <mxCell id="nInNXgktZY5D4JE9j20Z-6" value="OPEN SOCKET" style="rounded=0;whiteSpace=wrap;html=1;fillColor=#F8D420;fontStyle=1" vertex="1" parent="1">
          <mxGeometry x="199" y="330" width="120" height="30" as="geometry" />
        </mxCell>
        <mxCell id="nInNXgktZY5D4JE9j20Z-20" style="edgeStyle=orthogonalEdgeStyle;rounded=0;orthogonalLoop=1;jettySize=auto;html=1;entryX=0;entryY=0.5;entryDx=0;entryDy=0;" edge="1" parent="1" source="nInNXgktZY5D4JE9j20Z-9" target="nInNXgktZY5D4JE9j20Z-18">
          <mxGeometry relative="1" as="geometry" />
        </mxCell>
        <mxCell id="nInNXgktZY5D4JE9j20Z-21" value="&lt;div&gt;IF&lt;/div&gt;&lt;div&gt;REQUEST&lt;/div&gt;&lt;div&gt;EVENT&lt;/div&gt;" style="edgeLabel;html=1;align=center;verticalAlign=middle;resizable=0;points=[];" vertex="1" connectable="0" parent="nInNXgktZY5D4JE9j20Z-20">
          <mxGeometry x="0.0113" relative="1" as="geometry">
            <mxPoint as="offset" />
          </mxGeometry>
        </mxCell>
        <mxCell id="nInNXgktZY5D4JE9j20Z-9" value="GUI" style="rounded=0;whiteSpace=wrap;html=1;fillColor=#F8D420;fontStyle=1" vertex="1" parent="1">
          <mxGeometry x="399" y="330" width="120" height="30" as="geometry" />
        </mxCell>
        <mxCell id="nInNXgktZY5D4JE9j20Z-14" value="" style="endArrow=none;html=1;rounded=0;" edge="1" parent="1">
          <mxGeometry width="50" height="50" relative="1" as="geometry">
            <mxPoint x="260" y="380" as="sourcePoint" />
            <mxPoint x="260" y="310" as="targetPoint" />
            <Array as="points">
              <mxPoint x="220" y="380" />
              <mxPoint x="160" y="380" />
              <mxPoint x="160" y="310" />
            </Array>
          </mxGeometry>
        </mxCell>
        <mxCell id="nInNXgktZY5D4JE9j20Z-15" value="" style="endArrow=classic;html=1;rounded=0;" edge="1" parent="1">
          <mxGeometry width="50" height="50" relative="1" as="geometry">
            <mxPoint x="160" y="380" as="sourcePoint" />
            <mxPoint x="160" y="330" as="targetPoint" />
          </mxGeometry>
        </mxCell>
        <mxCell id="nInNXgktZY5D4JE9j20Z-16" value="LOOP" style="edgeLabel;html=1;align=center;verticalAlign=middle;resizable=0;points=[];" vertex="1" connectable="0" parent="nInNXgktZY5D4JE9j20Z-15">
          <mxGeometry x="-0.3048" relative="1" as="geometry">
            <mxPoint y="-10" as="offset" />
          </mxGeometry>
        </mxCell>
        <mxCell id="nInNXgktZY5D4JE9j20Z-18" value="SEND DATA" style="rounded=0;whiteSpace=wrap;html=1;fillColor=#F8D420;fontStyle=1" vertex="1" parent="1">
          <mxGeometry x="600" y="330" width="120" height="30" as="geometry" />
        </mxCell>
      </root>
    </mxGraphModel>
  </diagram>
</mxfile>
